<svg width="1000" height="456" viewBox="0 0 1000 456" fill="none" xmlns="http://www.w3.org/2000/svg">
<rect width="1000" height="456" fill="#2B2B2B"/>
<g clip-path="url(#clip0_0_1)">
<rect width="1000" height="456" fill="#414141"/>
<rect x="353.987" y="233.299" width="70" height="70" transform="rotate(-5.17352 353.987 233.299)" fill="#7F8871"/>
<g filter="url(#filter0_d_0_1)">
<path d="M194.304 213.968C196.949 213.968 199.275 214.501 201.28 215.568C203.285 216.592 204.864 217.936 206.016 219.6V214.544H215.04V250.256C215.04 253.541 214.379 256.464 213.056 259.024C211.733 261.627 209.749 263.675 207.104 265.168C204.459 266.704 201.259 267.472 197.504 267.472C192.469 267.472 188.331 266.299 185.088 263.952C181.888 261.605 180.075 258.405 179.648 254.352H188.544C189.013 255.973 190.016 257.253 191.552 258.192C193.131 259.173 195.029 259.664 197.248 259.664C199.851 259.664 201.963 258.875 203.584 257.296C205.205 255.76 206.016 253.413 206.016 250.256V244.752C204.864 246.416 203.264 247.803 201.216 248.912C199.211 250.021 196.907 250.576 194.304 250.576C191.317 250.576 188.587 249.808 186.112 248.272C183.637 246.736 181.675 244.581 180.224 241.808C178.816 238.992 178.112 235.771 178.112 232.144C178.112 228.56 178.816 225.381 180.224 222.608C181.675 219.835 183.616 217.701 186.048 216.208C188.523 214.715 191.275 213.968 194.304 213.968ZM206.016 232.272C206.016 230.096 205.589 228.24 204.736 226.704C203.883 225.125 202.731 223.931 201.28 223.12C199.829 222.267 198.272 221.84 196.608 221.84C194.944 221.84 193.408 222.245 192 223.056C190.592 223.867 189.44 225.061 188.544 226.64C187.691 228.176 187.264 230.011 187.264 232.144C187.264 234.277 187.691 236.155 188.544 237.776C189.44 239.355 190.592 240.571 192 241.424C193.451 242.277 194.987 242.704 196.608 242.704C198.272 242.704 199.829 242.299 201.28 241.488C202.731 240.635 203.883 239.44 204.736 237.904C205.589 236.325 206.016 234.448 206.016 232.272ZM221.487 232.144C221.487 228.56 222.191 225.381 223.599 222.608C225.05 219.835 226.991 217.701 229.423 216.208C231.898 214.715 234.65 213.968 237.679 213.968C240.324 213.968 242.628 214.501 244.591 215.568C246.596 216.635 248.196 217.979 249.391 219.6V214.544H258.415V250H249.391V244.816C248.239 246.48 246.639 247.867 244.591 248.976C242.586 250.043 240.26 250.576 237.615 250.576C234.628 250.576 231.898 249.808 229.423 248.272C226.991 246.736 225.05 244.581 223.599 241.808C222.191 238.992 221.487 235.771 221.487 232.144ZM249.391 232.272C249.391 230.096 248.964 228.24 248.111 226.704C247.258 225.125 246.106 223.931 244.655 223.12C243.204 222.267 241.647 221.84 239.983 221.84C238.319 221.84 236.783 222.245 235.375 223.056C233.967 223.867 232.815 225.061 231.919 226.64C231.066 228.176 230.639 230.011 230.639 232.144C230.639 234.277 231.066 236.155 231.919 237.776C232.815 239.355 233.967 240.571 235.375 241.424C236.826 242.277 238.362 242.704 239.983 242.704C241.647 242.704 243.204 242.299 244.655 241.488C246.106 240.635 247.258 239.44 248.111 237.904C248.964 236.325 249.391 234.448 249.391 232.272ZM311.198 214.032C315.55 214.032 319.049 215.376 321.694 218.064C324.382 220.709 325.726 224.421 325.726 229.2V250H316.766V230.416C316.766 227.643 316.062 225.531 314.654 224.08C313.246 222.587 311.326 221.84 308.894 221.84C306.462 221.84 304.521 222.587 303.07 224.08C301.662 225.531 300.958 227.643 300.958 230.416V250H291.998V230.416C291.998 227.643 291.294 225.531 289.886 224.08C288.478 222.587 286.558 221.84 284.126 221.84C281.651 221.84 279.689 222.587 278.238 224.08C276.83 225.531 276.126 227.643 276.126 230.416V250H267.166V214.544H276.126V218.832C277.278 217.339 278.75 216.165 280.542 215.312C282.377 214.459 284.382 214.032 286.558 214.032C289.331 214.032 291.806 214.629 293.982 215.824C296.158 216.976 297.843 218.64 299.038 220.816C300.19 218.768 301.854 217.125 304.03 215.888C306.249 214.651 308.638 214.032 311.198 214.032ZM367.189 231.504C367.189 232.784 367.103 233.936 366.933 234.96H341.013C341.226 237.52 342.122 239.525 343.701 240.976C345.279 242.427 347.221 243.152 349.525 243.152C352.853 243.152 355.221 241.723 356.629 238.864H366.293C365.269 242.277 363.306 245.093 360.405 247.312C357.503 249.488 353.941 250.576 349.717 250.576C346.303 250.576 343.231 249.829 340.501 248.336C337.813 246.8 335.701 244.645 334.165 241.872C332.671 239.099 331.924 235.899 331.924 232.272C331.924 228.603 332.671 225.381 334.165 222.608C335.658 219.835 337.749 217.701 340.437 216.208C343.125 214.715 346.218 213.968 349.717 213.968C353.087 213.968 356.095 214.693 358.741 216.144C361.429 217.595 363.498 219.664 364.949 222.352C366.442 224.997 367.189 228.048 367.189 231.504ZM357.909 228.944C357.866 226.64 357.034 224.805 355.413 223.44C353.791 222.032 351.807 221.328 349.461 221.328C347.242 221.328 345.365 222.011 343.829 223.376C342.335 224.699 341.418 226.555 341.077 228.944H357.909ZM417.761 214.032C422.113 214.032 425.611 215.376 428.257 218.064C430.945 220.709 432.289 224.421 432.289 229.2V250H423.329V230.416C423.329 227.643 422.625 225.531 421.217 224.08C419.809 222.587 417.889 221.84 415.457 221.84C413.025 221.84 411.083 222.587 409.633 224.08C408.225 225.531 407.521 227.643 407.521 230.416V250H398.561V230.416C398.561 227.643 397.857 225.531 396.449 224.08C395.041 222.587 393.121 221.84 390.689 221.84C388.214 221.84 386.251 222.587 384.801 224.08C383.393 225.531 382.689 227.643 382.689 230.416V250H373.729V214.544H382.689V218.832C383.841 217.339 385.313 216.165 387.105 215.312C388.939 214.459 390.945 214.032 393.121 214.032C395.894 214.032 398.369 214.629 400.545 215.824C402.721 216.976 404.406 218.64 405.601 220.816C406.753 218.768 408.417 217.125 410.593 215.888C412.811 214.651 415.201 214.032 417.761 214.032ZM438.487 232.144C438.487 228.56 439.191 225.381 440.599 222.608C442.05 219.835 443.991 217.701 446.423 216.208C448.898 214.715 451.65 213.968 454.679 213.968C457.324 213.968 459.628 214.501 461.591 215.568C463.596 216.635 465.196 217.979 466.391 219.6V214.544H475.415V250H466.391V244.816C465.239 246.48 463.639 247.867 461.591 248.976C459.586 250.043 457.26 250.576 454.615 250.576C451.628 250.576 448.898 249.808 446.423 248.272C443.991 246.736 442.05 244.581 440.599 241.808C439.191 238.992 438.487 235.771 438.487 232.144ZM466.391 232.272C466.391 230.096 465.964 228.24 465.111 226.704C464.258 225.125 463.106 223.931 461.655 223.12C460.204 222.267 458.647 221.84 456.983 221.84C455.319 221.84 453.783 222.245 452.375 223.056C450.967 223.867 449.815 225.061 448.919 226.64C448.066 228.176 447.639 230.011 447.639 232.144C447.639 234.277 448.066 236.155 448.919 237.776C449.815 239.355 450.967 240.571 452.375 241.424C453.826 242.277 455.362 242.704 456.983 242.704C458.647 242.704 460.204 242.299 461.655 241.488C463.106 240.635 464.258 239.44 465.111 237.904C465.964 236.325 466.391 234.448 466.391 232.272ZM497.734 250.576C494.833 250.576 492.23 250.064 489.926 249.04C487.622 247.973 485.787 246.544 484.422 244.752C483.099 242.96 482.374 240.976 482.246 238.8H491.27C491.441 240.165 492.102 241.296 493.254 242.192C494.449 243.088 495.921 243.536 497.67 243.536C499.377 243.536 500.699 243.195 501.638 242.512C502.619 241.829 503.11 240.955 503.11 239.888C503.11 238.736 502.513 237.883 501.318 237.328C500.166 236.731 498.31 236.091 495.75 235.408C493.105 234.768 490.929 234.107 489.222 233.424C487.558 232.741 486.107 231.696 484.87 230.288C483.675 228.88 483.078 226.981 483.078 224.592C483.078 222.629 483.633 220.837 484.742 219.216C485.894 217.595 487.515 216.315 489.606 215.376C491.739 214.437 494.235 213.968 497.094 213.968C501.318 213.968 504.689 215.035 507.206 217.168C509.723 219.259 511.11 222.096 511.366 225.68H502.79C502.662 224.272 502.065 223.163 500.998 222.352C499.974 221.499 498.587 221.072 496.838 221.072C495.217 221.072 493.958 221.371 493.062 221.968C492.209 222.565 491.782 223.397 491.782 224.464C491.782 225.659 492.379 226.576 493.574 227.216C494.769 227.813 496.625 228.432 499.142 229.072C501.702 229.712 503.814 230.373 505.478 231.056C507.142 231.739 508.571 232.805 509.766 234.256C511.003 235.664 511.643 237.541 511.686 239.888C511.686 241.936 511.11 243.771 509.958 245.392C508.849 247.013 507.227 248.293 505.094 249.232C503.003 250.128 500.55 250.576 497.734 250.576ZM529.473 221.904V239.056C529.473 240.251 529.75 241.125 530.305 241.68C530.902 242.192 531.884 242.448 533.249 242.448H537.409V250H531.777C524.225 250 520.449 246.331 520.449 238.992V221.904H516.225V214.544H520.449V205.776H529.473V214.544H537.409V221.904H529.473ZM576.814 231.504C576.814 232.784 576.728 233.936 576.558 234.96H550.638C550.851 237.52 551.747 239.525 553.326 240.976C554.904 242.427 556.846 243.152 559.15 243.152C562.478 243.152 564.846 241.723 566.254 238.864H575.918C574.894 242.277 572.931 245.093 570.03 247.312C567.128 249.488 563.566 250.576 559.342 250.576C555.928 250.576 552.856 249.829 550.126 248.336C547.438 246.8 545.326 244.645 543.79 241.872C542.296 239.099 541.549 235.899 541.549 232.272C541.549 228.603 542.296 225.381 543.79 222.608C545.283 219.835 547.374 217.701 550.062 216.208C552.75 214.715 555.843 213.968 559.342 213.968C562.712 213.968 565.72 214.693 568.366 216.144C571.054 217.595 573.123 219.664 574.574 222.352C576.067 224.997 576.814 228.048 576.814 231.504ZM567.534 228.944C567.491 226.64 566.659 224.805 565.038 223.44C563.416 222.032 561.432 221.328 559.086 221.328C556.867 221.328 554.99 222.011 553.454 223.376C551.96 224.699 551.043 226.555 550.702 228.944H567.534ZM592.314 220.048C593.466 218.171 594.959 216.699 596.794 215.632C598.671 214.565 600.804 214.032 603.194 214.032V223.44H600.826C598.01 223.44 595.876 224.101 594.426 225.424C593.018 226.747 592.314 229.051 592.314 232.336V250H583.354V214.544H592.314V220.048ZM607.117 211.6V203.344H622.541V250H613.325V211.6H607.117ZM634.208 239.888C638.304 236.475 641.568 233.637 644 231.376C646.432 229.072 648.459 226.683 650.08 224.208C651.701 221.733 652.512 219.301 652.512 216.912C652.512 214.736 652 213.029 650.976 211.792C649.952 210.555 648.373 209.936 646.24 209.936C644.107 209.936 642.464 210.661 641.312 212.112C640.16 213.52 639.563 215.461 639.52 217.936H630.816C630.987 212.816 632.501 208.933 635.36 206.288C638.261 203.643 641.931 202.32 646.368 202.32C651.232 202.32 654.965 203.621 657.568 206.224C660.171 208.784 661.472 212.176 661.472 216.4C661.472 219.728 660.576 222.907 658.784 225.936C656.992 228.965 654.944 231.611 652.64 233.872C650.336 236.091 647.328 238.779 643.616 241.936H662.496V249.36H630.88V242.704L634.208 239.888ZM668.27 215.632C668.483 211.365 669.977 208.08 672.75 205.776C675.566 203.429 679.257 202.256 683.822 202.256C686.937 202.256 689.603 202.811 691.822 203.92C694.041 204.987 695.705 206.459 696.814 208.336C697.966 210.171 698.542 212.261 698.542 214.608C698.542 217.296 697.838 219.579 696.43 221.456C695.065 223.291 693.422 224.528 691.502 225.168V225.424C693.977 226.192 695.897 227.557 697.262 229.52C698.67 231.483 699.374 234 699.374 237.072C699.374 239.632 698.777 241.915 697.582 243.92C696.43 245.925 694.702 247.504 692.398 248.656C690.137 249.765 687.406 250.32 684.206 250.32C679.385 250.32 675.459 249.104 672.43 246.672C669.401 244.24 667.801 240.656 667.63 235.92H676.334C676.419 238.011 677.123 239.696 678.446 240.976C679.811 242.213 681.667 242.832 684.014 242.832C686.19 242.832 687.854 242.235 689.006 241.04C690.201 239.803 690.798 238.224 690.798 236.304C690.798 233.744 689.987 231.909 688.366 230.8C686.745 229.691 684.227 229.136 680.814 229.136H678.958V221.776H680.814C686.873 221.776 689.902 219.749 689.902 215.696C689.902 213.861 689.347 212.432 688.238 211.408C687.171 210.384 685.614 209.872 683.566 209.872C681.561 209.872 680.003 210.427 678.894 211.536C677.827 212.603 677.209 213.968 677.038 215.632H668.27ZM706.583 215.632C706.796 211.365 708.289 208.08 711.062 205.776C713.879 203.429 717.569 202.256 722.135 202.256C725.249 202.256 727.916 202.811 730.135 203.92C732.353 204.987 734.017 206.459 735.127 208.336C736.279 210.171 736.854 212.261 736.854 214.608C736.854 217.296 736.151 219.579 734.743 221.456C733.377 223.291 731.735 224.528 729.815 225.168V225.424C732.289 226.192 734.209 227.557 735.575 229.52C736.983 231.483 737.687 234 737.687 237.072C737.687 239.632 737.089 241.915 735.895 243.92C734.743 245.925 733.015 247.504 730.711 248.656C728.449 249.765 725.719 250.32 722.519 250.32C717.697 250.32 713.772 249.104 710.743 246.672C707.713 244.24 706.113 240.656 705.943 235.92H714.647C714.732 238.011 715.436 239.696 716.759 240.976C718.124 242.213 719.98 242.832 722.327 242.832C724.503 242.832 726.167 242.235 727.319 241.04C728.513 239.803 729.111 238.224 729.111 236.304C729.111 233.744 728.3 231.909 726.679 230.8C725.057 229.691 722.54 229.136 719.127 229.136H717.271V221.776H719.127C725.185 221.776 728.215 219.749 728.215 215.696C728.215 213.861 727.66 212.432 726.551 211.408C725.484 210.384 723.927 209.872 721.878 209.872C719.873 209.872 718.316 210.427 717.207 211.536C716.14 212.603 715.521 213.968 715.351 215.632H706.583ZM776.127 211.088H755.391V222.032C756.287 220.923 757.567 220.027 759.231 219.344C760.895 218.619 762.666 218.256 764.543 218.256C767.956 218.256 770.751 219.003 772.927 220.496C775.103 221.989 776.682 223.909 777.663 226.256C778.644 228.56 779.135 231.035 779.135 233.68C779.135 238.587 777.727 242.533 774.911 245.52C772.138 248.507 768.17 250 763.007 250C758.143 250 754.26 248.784 751.359 246.352C748.458 243.92 746.815 240.741 746.431 236.816H755.135C755.519 238.523 756.372 239.888 757.695 240.912C759.06 241.936 760.788 242.448 762.879 242.448C765.396 242.448 767.295 241.659 768.575 240.08C769.855 238.501 770.495 236.411 770.495 233.808C770.495 231.163 769.834 229.157 768.511 227.792C767.231 226.384 765.332 225.68 762.815 225.68C761.023 225.68 759.53 226.128 758.335 227.024C757.14 227.92 756.287 229.115 755.775 230.608H747.199V203.216H776.127V211.088ZM810.147 214.992C809.72 213.2 808.973 211.856 807.907 210.96C806.883 210.064 805.389 209.616 803.427 209.616C800.483 209.616 798.307 210.811 796.899 213.2C795.533 215.547 794.829 219.387 794.787 224.72C795.811 223.013 797.304 221.691 799.267 220.752C801.229 219.771 803.363 219.28 805.667 219.28C808.44 219.28 810.893 219.877 813.027 221.072C815.16 222.267 816.824 224.016 818.019 226.32C819.213 228.581 819.811 231.312 819.811 234.512C819.811 237.541 819.192 240.251 817.955 242.64C816.76 244.987 814.989 246.821 812.643 248.144C810.296 249.467 807.501 250.128 804.259 250.128C799.821 250.128 796.323 249.147 793.763 247.184C791.245 245.221 789.475 242.491 788.451 238.992C787.469 235.451 786.979 231.099 786.979 225.936C786.979 218.128 788.323 212.24 791.01 208.272C793.699 204.261 797.944 202.256 803.747 202.256C808.227 202.256 811.704 203.472 814.179 205.904C816.653 208.336 818.083 211.365 818.467 214.992H810.147ZM803.619 226.64C801.357 226.64 799.459 227.301 797.923 228.624C796.387 229.947 795.619 231.867 795.619 234.384C795.619 236.901 796.323 238.885 797.731 240.336C799.181 241.787 801.208 242.512 803.811 242.512C806.115 242.512 807.928 241.808 809.251 240.4C810.616 238.992 811.299 237.093 811.299 234.704C811.299 232.229 810.637 230.267 809.315 228.816C808.035 227.365 806.136 226.64 803.619 226.64Z" fill="#278FDA"/>
</g>
<rect x="-8.05533" y="366.285" width="70" height="70" transform="rotate(4.63793 -8.05533 366.285)" fill="#111122" fill-opacity="0.552941"/>
<rect x="22.8734" y="-3.48549" width="70" height="70" transform="rotate(6.03446 22.8734 -3.48549)" fill="#7B5B7B"/>
<rect x="924.461" y="399.005" width="70" height="70" transform="rotate(26.7038 924.461 399.005)" fill="#111122"/>
<rect x="890.279" y="84.1897" width="70" height="70" transform="rotate(6.63629 890.279 84.1897)" fill="#8D5BB4"/>
<rect x="487.048" y="23.7795" width="70" height="70" transform="rotate(-8.81858 487.048 23.7795)" fill="#62626F"/>
<rect x="710.13" y="335.668" width="70" height="70" transform="rotate(-8.65791 710.13 335.668)" fill="#34349F"/>
<rect x="83.7584" y="166.063" width="70" height="70" transform="rotate(8.78829 83.7584 166.063)" fill="#9A9AB4"/>
<rect x="448.58" y="338.944" width="22" height="22" transform="rotate(-37.4054 448.58 338.944)" fill="#204BE4" fill-opacity="0.188235"/>
<rect x="938.563" y="343.838" width="22" height="22" transform="rotate(20.556 938.563 343.838)" fill="#119922" fill-opacity="0.188235"/>
<rect x="134.38" y="64.0499" width="22" height="22" transform="rotate(11.3525 134.38 64.0499)" fill="#119922" fill-opacity="0.188235"/>
<rect x="163.399" y="397.526" width="22" height="22" transform="rotate(39.0939 163.399 397.526)" fill="#119922" fill-opacity="0.188235"/>
<rect x="633.153" y="68.2274" width="22" height="22" transform="rotate(-10.6722 633.153 68.2274)" fill="#EB6519" fill-opacity="0.188235"/>
<rect x="867.113" y="267.286" width="22" height="22" transform="rotate(-10.9326 867.113 267.286)" fill="#119922" fill-opacity="0.188235"/>
<rect x="360.807" y="98.2065" width="22" height="22" transform="rotate(17.4592 360.807 98.2065)" fill="#BBA638" fill-opacity="0.188235"/>
<rect x="45.6576" y="298.001" width="22" height="22" transform="rotate(-14.0571 45.6576 298.001)" fill="#119922" fill-opacity="0.188235"/>
<rect x="601" y="413" width="22" height="22" fill="#E128C4" fill-opacity="0.188235"/>
</g>
<defs>
<filter id="filter0_d_0_1" x="174.112" y="202.256" width="649.698" height="75.216" filterUnits="userSpaceOnUse" color-interpolation-filters="sRGB">
<feFlood flood-opacity="0" result="BackgroundImageFix"/>
<feColorMatrix in="SourceAlpha" type="matrix" values="0 0 0 0 0 0 0 0 0 0 0 0 0 0 0 0 0 0 127 0" result="hardAlpha"/>
<feOffset dy="6"/>
<feGaussianBlur stdDeviation="2"/>
<feComposite in2="hardAlpha" operator="out"/>
<feColorMatrix type="matrix" values="0 0 0 0 0 0 0 0 0 0 0 0 0 0 0 0 0 0 0.35 0"/>
<feBlend mode="normal" in2="BackgroundImageFix" result="effect1_dropShadow_0_1"/>
<feBlend mode="normal" in="SourceGraphic" in2="effect1_dropShadow_0_1" result="shape"/>
</filter>
<clipPath id="clip0_0_1">
<rect width="1000" height="456" fill="white"/>
</clipPath>
</defs>
</svg>
