<svg width="1000" height="456" viewBox="0 0 1000 456" fill="none" xmlns="http://www.w3.org/2000/svg">
<rect width="1000" height="456" fill="#2B2B2B"/>
<g clip-path="url(#clip0_0_1)">
<path d="M710.872 95.0882L714.255 142.824L672 123L710.872 95.0882Z" fill="#A821B4"/>
<path d="M740.282 227.18L785.623 251.435L735.192 278.348L740.282 227.18Z" fill="#6D8593" fill-opacity="0.73"/>
<rect x="422.076" y="290.387" width="61.0664" height="56.7381" transform="rotate(-171.889 422.076 290.387)" fill="#76A725"/>
<rect x="-8.05533" y="366.285" width="70" height="70" transform="rotate(4.63793 -8.05533 366.285)" fill="#283BEC" fill-opacity="0.552941"/>
<rect x="22.8734" y="-3.48549" width="70" height="70" transform="rotate(6.03446 22.8734 -3.48549)" fill="#927076"/>
<rect x="924.461" y="399.005" width="70" height="70" transform="rotate(26.7038 924.461 399.005)" fill="#5D2D9A"/>
<rect x="860.17" y="102.712" width="80.3683" height="79.3505" transform="rotate(6.63629 860.17 102.712)" fill="#8D21B4"/>
<rect x="487.048" y="23.7795" width="62.5674" height="59.5161" transform="rotate(-8.81858 487.048 23.7795)" fill="#1FB363"/>
<rect x="710.13" y="335.668" width="67.9655" height="64.2963" transform="rotate(-8.65791 710.13 335.668)" fill="#ADB831"/>
<rect x="68.8904" y="204.553" width="70" height="70" transform="rotate(-26.8925 68.8904 204.553)" fill="#864E25"/>
<rect x="448.58" y="338.944" width="22" height="22" transform="rotate(-37.4054 448.58 338.944)" fill="#0038FF" fill-opacity="0.188235"/>
<rect x="938.563" y="343.838" width="22" height="22" transform="rotate(20.556 938.563 343.838)" fill="#96FFA3" fill-opacity="0.188235"/>
<rect x="134.38" y="64.0499" width="22" height="22" transform="rotate(11.3525 134.38 64.0499)" fill="#991111" fill-opacity="0.33"/>
<rect x="163.399" y="397.526" width="22" height="22" transform="rotate(39.0939 163.399 397.526)" fill="#4200FF" fill-opacity="0.22"/>
<rect x="867.113" y="267.286" width="22" height="22" transform="rotate(-10.9326 867.113 267.286)" fill="#05FF24" fill-opacity="0.188235"/>
<rect x="360.807" y="98.2065" width="22" height="22" transform="rotate(17.4592 360.807 98.2065)" fill="#FFD600" fill-opacity="0.22"/>
<rect x="45.6576" y="298.001" width="22" height="22" transform="rotate(-14.0571 45.6576 298.001)" fill="#FF8A00" fill-opacity="0.188235"/>
<rect x="601" y="413" width="22" height="22" fill="#FF00D6" fill-opacity="0.188235"/>
<path d="M219.778 100.408L273.648 140.221L205.574 165.871L219.778 100.408Z" fill="#3CCACA"/>
<path d="M779.159 -6.53073L816.256 25.1219L764.507 39.9821L779.159 -6.53073Z" fill="#3428BA"/>
<path d="M115.328 358.639L148.321 390.345L99.3501 401.517L115.328 358.639Z" fill="#967B34"/>
<path d="M268.415 -17.0126L313.639 32.4022L241.907 44.5048L268.415 -17.0126Z" fill="#112A39"/>
<path d="M964.979 232.903L1028.44 275.566L952.266 308.308L964.979 232.903Z" fill="#5C97B8"/>
<path d="M943.972 1.61303L1002.49 50.4272L920.042 73.9597L943.972 1.61303Z" fill="#BDB723"/>
<path d="M43.8044 173.561L-9.21312 153.788L36.6165 117.434L43.8044 173.561Z" fill="#2E2E2E"/>
<path d="M474.1 174.746L471.133 207.144L443.247 185.067L474.1 174.746Z" fill="#4497C5"/>
<path d="M313.353 384.974L356.043 411.887L302.961 434.358L313.353 384.974Z" fill="#ADD08A"/>
<path d="M608.694 297.438L615.789 372.429L543.573 335.298L608.694 297.438Z" fill="#A0262D"/>
<rect x="633.153" y="68.2274" width="22" height="22" transform="rotate(-10.6722 633.153 68.2274)" fill="#FF5C00" fill-opacity="0.32"/>
<path d="M440.273 -43.6425L498.478 -10.4872L433.919 23.0409L440.273 -43.6425Z" fill="#BFA033"/>
<g filter="url(#filter0_d_0_1)">
<path d="M189.536 216.776C192.053 216.776 194.251 217.288 196.128 218.312C198.048 219.336 199.52 220.68 200.544 222.344V217.288H211.488V252.936C211.488 256.221 210.827 259.187 209.504 261.832C208.224 264.52 206.24 266.653 203.552 268.232C200.907 269.811 197.6 270.6 193.632 270.6C188.341 270.6 184.053 269.341 180.768 266.824C177.483 264.349 175.605 260.979 175.136 256.712H185.952C186.293 258.077 187.104 259.144 188.384 259.912C189.664 260.723 191.243 261.128 193.12 261.128C195.381 261.128 197.173 260.467 198.496 259.144C199.861 257.864 200.544 255.795 200.544 252.936V247.88C199.477 249.544 198.005 250.909 196.128 251.976C194.251 253 192.053 253.512 189.536 253.512C186.592 253.512 183.925 252.765 181.536 251.272C179.147 249.736 177.248 247.581 175.84 244.808C174.475 241.992 173.792 238.749 173.792 235.08C173.792 231.411 174.475 228.189 175.84 225.416C177.248 222.643 179.147 220.509 181.536 219.016C183.925 217.523 186.592 216.776 189.536 216.776ZM200.544 235.144C200.544 232.413 199.776 230.259 198.24 228.68C196.747 227.101 194.912 226.312 192.736 226.312C190.56 226.312 188.704 227.101 187.168 228.68C185.675 230.216 184.928 232.349 184.928 235.08C184.928 237.811 185.675 239.987 187.168 241.608C188.704 243.187 190.56 243.976 192.736 243.976C194.912 243.976 196.747 243.187 198.24 241.608C199.776 240.029 200.544 237.875 200.544 235.144ZM217.23 235.08C217.23 231.411 217.912 228.189 219.278 225.416C220.686 222.643 222.584 220.509 224.974 219.016C227.363 217.523 230.03 216.776 232.974 216.776C235.491 216.776 237.688 217.288 239.566 218.312C241.486 219.336 242.958 220.68 243.982 222.344V217.288H254.926V253H243.982V247.944C242.915 249.608 241.422 250.952 239.502 251.976C237.624 253 235.427 253.512 232.91 253.512C230.008 253.512 227.363 252.765 224.974 251.272C222.584 249.736 220.686 247.581 219.278 244.808C217.912 241.992 217.23 238.749 217.23 235.08ZM243.982 235.144C243.982 232.413 243.214 230.259 241.678 228.68C240.184 227.101 238.35 226.312 236.174 226.312C233.998 226.312 232.142 227.101 230.606 228.68C229.112 230.216 228.366 232.349 228.366 235.08C228.366 237.811 229.112 239.987 230.606 241.608C232.142 243.187 233.998 243.976 236.174 243.976C238.35 243.976 240.184 243.187 241.678 241.608C243.214 240.029 243.982 237.875 243.982 235.144ZM308.411 216.904C312.848 216.904 316.368 218.248 318.971 220.936C321.616 223.624 322.939 227.357 322.939 232.136V253H312.059V233.608C312.059 231.304 311.44 229.533 310.203 228.296C309.008 227.016 307.344 226.376 305.211 226.376C303.078 226.376 301.392 227.016 300.155 228.296C298.96 229.533 298.363 231.304 298.363 233.608V253H287.483V233.608C287.483 231.304 286.864 229.533 285.627 228.296C284.432 227.016 282.768 226.376 280.635 226.376C278.502 226.376 276.816 227.016 275.579 228.296C274.384 229.533 273.787 231.304 273.787 233.608V253H262.843V217.288H273.787V221.768C274.896 220.275 276.347 219.101 278.139 218.248C279.931 217.352 281.958 216.904 284.219 216.904C286.907 216.904 289.296 217.48 291.387 218.632C293.52 219.784 295.184 221.427 296.379 223.56C297.616 221.597 299.302 219.997 301.435 218.76C303.568 217.523 305.894 216.904 308.411 216.904ZM364.257 234.568C364.257 235.592 364.193 236.659 364.065 237.768H339.297C339.468 239.987 340.172 241.693 341.409 242.888C342.689 244.04 344.246 244.616 346.081 244.616C348.812 244.616 350.71 243.464 351.777 241.16H363.425C362.828 243.507 361.74 245.619 360.161 247.496C358.625 249.373 356.684 250.845 354.337 251.912C351.99 252.979 349.366 253.512 346.465 253.512C342.966 253.512 339.852 252.765 337.121 251.272C334.39 249.779 332.257 247.645 330.721 244.872C329.185 242.099 328.417 238.856 328.417 235.144C328.417 231.432 329.164 228.189 330.657 225.416C332.193 222.643 334.326 220.509 337.057 219.016C339.788 217.523 342.924 216.776 346.465 216.776C349.921 216.776 352.993 217.501 355.681 218.952C358.369 220.403 360.46 222.472 361.953 225.16C363.489 227.848 364.257 230.984 364.257 234.568ZM353.057 231.688C353.057 229.811 352.417 228.317 351.137 227.208C349.857 226.099 348.257 225.544 346.337 225.544C344.502 225.544 342.945 226.077 341.665 227.144C340.428 228.211 339.66 229.725 339.361 231.688H353.057ZM415.599 216.904C420.036 216.904 423.556 218.248 426.159 220.936C428.804 223.624 430.127 227.357 430.127 232.136V253H419.247V233.608C419.247 231.304 418.628 229.533 417.391 228.296C416.196 227.016 414.532 226.376 412.399 226.376C410.265 226.376 408.58 227.016 407.343 228.296C406.148 229.533 405.551 231.304 405.551 233.608V253H394.671V233.608C394.671 231.304 394.052 229.533 392.815 228.296C391.62 227.016 389.956 226.376 387.823 226.376C385.689 226.376 384.004 227.016 382.767 228.296C381.572 229.533 380.975 231.304 380.975 233.608V253H370.031V217.288H380.975V221.768C382.084 220.275 383.535 219.101 385.327 218.248C387.119 217.352 389.145 216.904 391.407 216.904C394.095 216.904 396.484 217.48 398.575 218.632C400.708 219.784 402.372 221.427 403.567 223.56C404.804 221.597 406.489 219.997 408.623 218.76C410.756 217.523 413.081 216.904 415.599 216.904ZM435.605 235.08C435.605 231.411 436.287 228.189 437.653 225.416C439.061 222.643 440.959 220.509 443.349 219.016C445.738 217.523 448.405 216.776 451.349 216.776C453.866 216.776 456.063 217.288 457.941 218.312C459.861 219.336 461.333 220.68 462.357 222.344V217.288H473.301V253H462.357V247.944C461.29 249.608 459.797 250.952 457.877 251.976C455.999 253 453.802 253.512 451.285 253.512C448.383 253.512 445.738 252.765 443.349 251.272C440.959 249.736 439.061 247.581 437.653 244.808C436.287 241.992 435.605 238.749 435.605 235.08ZM462.357 235.144C462.357 232.413 461.589 230.259 460.053 228.68C458.559 227.101 456.725 226.312 454.549 226.312C452.373 226.312 450.517 227.101 448.981 228.68C447.487 230.216 446.741 232.349 446.741 235.08C446.741 237.811 447.487 239.987 448.981 241.608C450.517 243.187 452.373 243.976 454.549 243.976C456.725 243.976 458.559 243.187 460.053 241.608C461.589 240.029 462.357 237.875 462.357 235.144ZM495.746 253.512C492.631 253.512 489.858 252.979 487.426 251.912C484.994 250.845 483.074 249.395 481.666 247.56C480.258 245.683 479.469 243.592 479.298 241.288H490.114C490.242 242.525 490.818 243.528 491.842 244.296C492.866 245.064 494.125 245.448 495.618 245.448C496.983 245.448 498.029 245.192 498.754 244.68C499.522 244.125 499.906 243.421 499.906 242.568C499.906 241.544 499.373 240.797 498.306 240.328C497.239 239.816 495.511 239.261 493.122 238.664C490.562 238.067 488.429 237.448 486.722 236.808C485.015 236.125 483.543 235.08 482.306 233.672C481.069 232.221 480.45 230.28 480.45 227.848C480.45 225.8 481.005 223.944 482.114 222.28C483.266 220.573 484.93 219.229 487.106 218.248C489.325 217.267 491.949 216.776 494.978 216.776C499.458 216.776 502.978 217.885 505.538 220.104C508.141 222.323 509.634 225.267 510.018 228.936H499.906C499.735 227.699 499.181 226.717 498.242 225.992C497.346 225.267 496.151 224.904 494.658 224.904C493.378 224.904 492.397 225.16 491.714 225.672C491.031 226.141 490.69 226.803 490.69 227.656C490.69 228.68 491.223 229.448 492.29 229.96C493.399 230.472 495.106 230.984 497.41 231.496C500.055 232.179 502.21 232.861 503.874 233.544C505.538 234.184 506.989 235.251 508.226 236.744C509.506 238.195 510.167 240.157 510.21 242.632C510.21 244.723 509.613 246.6 508.418 248.264C507.266 249.885 505.581 251.165 503.362 252.104C501.186 253.043 498.647 253.512 495.746 253.512ZM536.81 243.72V253H531.242C527.274 253 524.18 252.04 521.962 250.12C519.743 248.157 518.634 244.979 518.634 240.584V226.376H514.282V217.288H518.634V208.584H529.578V217.288H536.746V226.376H529.578V240.712C529.578 241.779 529.834 242.547 530.346 243.016C530.858 243.485 531.711 243.72 532.906 243.72H536.81ZM576.569 234.568C576.569 235.592 576.506 236.659 576.378 237.768H551.61C551.78 239.987 552.484 241.693 553.722 242.888C555.002 244.04 556.559 244.616 558.394 244.616C561.124 244.616 563.023 243.464 564.09 241.16H575.738C575.14 243.507 574.052 245.619 572.474 247.496C570.938 249.373 568.996 250.845 566.65 251.912C564.303 252.979 561.679 253.512 558.778 253.512C555.279 253.512 552.164 252.765 549.434 251.272C546.703 249.779 544.57 247.645 543.034 244.872C541.498 242.099 540.73 238.856 540.73 235.144C540.73 231.432 541.476 228.189 542.97 225.416C544.506 222.643 546.639 220.509 549.37 219.016C552.1 217.523 555.236 216.776 558.778 216.776C562.234 216.776 565.306 217.501 567.994 218.952C570.682 220.403 572.772 222.472 574.266 225.16C575.802 227.848 576.569 230.984 576.569 234.568ZM565.37 231.688C565.37 229.811 564.73 228.317 563.45 227.208C562.17 226.099 560.57 225.544 558.65 225.544C556.815 225.544 555.258 226.077 553.978 227.144C552.74 228.211 551.972 229.725 551.674 231.688H565.37ZM593.287 223.24C594.567 221.277 596.167 219.741 598.087 218.632C600.007 217.48 602.14 216.904 604.487 216.904V228.488H601.479C598.748 228.488 596.7 229.085 595.335 230.28C593.97 231.432 593.287 233.48 593.287 236.424V253H582.343V217.288H593.287V223.24ZM607.478 216.456V206.28H625.206V253H613.814V216.456H607.478ZM632.309 244.232C633.759 243.08 634.421 242.547 634.293 242.632C638.474 239.176 641.759 236.339 644.149 234.12C646.581 231.901 648.629 229.576 650.293 227.144C651.957 224.712 652.789 222.344 652.789 220.04C652.789 218.291 652.383 216.925 651.573 215.944C650.762 214.963 649.546 214.472 647.925 214.472C646.303 214.472 645.023 215.091 644.085 216.328C643.189 217.523 642.741 219.229 642.741 221.448H632.181C632.266 217.821 633.034 214.792 634.485 212.36C635.978 209.928 637.919 208.136 640.309 206.984C642.741 205.832 645.429 205.256 648.373 205.256C653.45 205.256 657.269 206.557 659.829 209.16C662.431 211.763 663.733 215.155 663.733 219.336C663.733 223.901 662.175 228.147 659.061 232.072C655.946 235.955 651.978 239.752 647.157 243.464H664.437V252.36H632.309V244.232ZM669.639 219.464C669.81 214.899 671.303 211.379 674.119 208.904C676.935 206.429 680.754 205.192 685.575 205.192C688.775 205.192 691.506 205.747 693.767 206.856C696.071 207.965 697.799 209.48 698.951 211.4C700.146 213.32 700.743 215.475 700.743 217.864C700.743 220.68 700.039 222.984 698.631 224.776C697.223 226.525 695.58 227.72 693.703 228.36V228.616C696.135 229.427 698.055 230.771 699.463 232.648C700.871 234.525 701.575 236.936 701.575 239.88C701.575 242.525 700.956 244.872 699.719 246.92C698.524 248.925 696.754 250.504 694.407 251.656C692.103 252.808 689.351 253.384 686.151 253.384C681.031 253.384 676.935 252.125 673.863 249.608C670.834 247.091 669.234 243.293 669.063 238.216H679.687C679.73 240.093 680.263 241.587 681.287 242.696C682.311 243.763 683.804 244.296 685.767 244.296C687.431 244.296 688.711 243.827 689.607 242.888C690.546 241.907 691.015 240.627 691.015 239.048C691.015 237 690.354 235.528 689.031 234.632C687.751 233.693 685.682 233.224 682.823 233.224H680.775V224.328H682.823C684.999 224.328 686.748 223.965 688.071 223.24C689.436 222.472 690.119 221.128 690.119 219.208C690.119 217.672 689.692 216.477 688.839 215.624C687.986 214.771 686.812 214.344 685.319 214.344C683.698 214.344 682.482 214.835 681.671 215.816C680.903 216.797 680.455 218.013 680.327 219.464H669.639ZM708.389 219.464C708.56 214.899 710.053 211.379 712.869 208.904C715.685 206.429 719.504 205.192 724.325 205.192C727.525 205.192 730.256 205.747 732.517 206.856C734.821 207.965 736.549 209.48 737.701 211.4C738.896 213.32 739.493 215.475 739.493 217.864C739.493 220.68 738.789 222.984 737.381 224.776C735.973 226.525 734.33 227.72 732.453 228.36V228.616C734.885 229.427 736.805 230.771 738.213 232.648C739.621 234.525 740.325 236.936 740.325 239.88C740.325 242.525 739.706 244.872 738.469 246.92C737.274 248.925 735.504 250.504 733.157 251.656C730.853 252.808 728.101 253.384 724.901 253.384C719.781 253.384 715.685 252.125 712.613 249.608C709.584 247.091 707.984 243.293 707.813 238.216H718.437C718.48 240.093 719.013 241.587 720.037 242.696C721.061 243.763 722.554 244.296 724.517 244.296C726.181 244.296 727.461 243.827 728.357 242.888C729.296 241.907 729.765 240.627 729.765 239.048C729.765 237 729.104 235.528 727.781 234.632C726.501 233.693 724.432 233.224 721.573 233.224H719.525V224.328H721.573C723.749 224.328 725.498 223.965 726.821 223.24C728.186 222.472 728.869 221.128 728.869 219.208C728.869 217.672 728.442 216.477 727.589 215.624C726.736 214.771 725.562 214.344 724.069 214.344C722.448 214.344 721.232 214.835 720.421 215.816C719.653 216.797 719.205 218.013 719.077 219.464H708.389ZM779.651 215.816H759.683V224.648C760.536 223.709 761.731 222.941 763.267 222.344C764.803 221.747 766.467 221.448 768.259 221.448C771.459 221.448 774.104 222.173 776.195 223.624C778.328 225.075 779.886 226.952 780.867 229.256C781.848 231.56 782.339 234.056 782.339 236.744C782.339 241.736 780.931 245.704 778.115 248.648C775.299 251.549 771.331 253 766.211 253C762.798 253 759.832 252.424 757.315 251.272C754.798 250.077 752.856 248.435 751.491 246.344C750.126 244.253 749.379 241.843 749.251 239.112H759.939C760.195 240.435 760.814 241.544 761.795 242.44C762.776 243.293 764.12 243.72 765.827 243.72C767.832 243.72 769.326 243.08 770.307 241.8C771.288 240.52 771.779 238.813 771.779 236.68C771.779 234.589 771.267 232.989 770.243 231.88C769.219 230.771 767.726 230.216 765.763 230.216C764.312 230.216 763.118 230.579 762.179 231.304C761.24 231.987 760.622 232.904 760.323 234.056H749.763V206.216H779.651V215.816ZM811.484 218.888C811.143 217.309 810.545 216.136 809.692 215.368C808.839 214.557 807.623 214.152 806.044 214.152C803.612 214.152 801.863 215.219 800.796 217.352C799.729 219.443 799.175 222.771 799.132 227.336C800.071 225.843 801.415 224.669 803.164 223.816C804.956 222.963 806.919 222.536 809.052 222.536C813.233 222.536 816.583 223.859 819.1 226.504C821.66 229.149 822.94 232.84 822.94 237.576C822.94 240.691 822.3 243.421 821.02 245.768C819.783 248.115 817.948 249.949 815.516 251.272C813.127 252.595 810.289 253.256 807.004 253.256C800.433 253.256 795.868 251.208 793.308 247.112C790.748 242.973 789.468 237.043 789.468 229.32C789.468 221.213 790.812 215.197 793.5 211.272C796.231 207.304 800.583 205.32 806.556 205.32C809.756 205.32 812.444 205.96 814.62 207.24C816.839 208.477 818.503 210.12 819.612 212.168C820.764 214.216 821.447 216.456 821.66 218.888H811.484ZM806.428 231.176C804.593 231.176 803.057 231.731 801.82 232.84C800.625 233.907 800.028 235.443 800.028 237.448C800.028 239.496 800.583 241.096 801.692 242.248C802.844 243.4 804.465 243.976 806.556 243.976C808.433 243.976 809.905 243.421 810.972 242.312C812.081 241.16 812.636 239.603 812.636 237.64C812.636 235.635 812.103 234.056 811.036 232.904C809.969 231.752 808.433 231.176 806.428 231.176Z" fill="#0085FF"/>
</g>
</g>
<defs>
<filter id="filter0_d_0_1" x="165.792" y="203.192" width="665.148" height="81.408" filterUnits="userSpaceOnUse" color-interpolation-filters="sRGB">
<feFlood flood-opacity="0" result="BackgroundImageFix"/>
<feColorMatrix in="SourceAlpha" type="matrix" values="0 0 0 0 0 0 0 0 0 0 0 0 0 0 0 0 0 0 127 0" result="hardAlpha"/>
<feOffset dy="6"/>
<feGaussianBlur stdDeviation="4"/>
<feComposite in2="hardAlpha" operator="out"/>
<feColorMatrix type="matrix" values="0 0 0 0 0 0 0 0 0 0 0 0 0 0 0 0 0 0 0.35 0"/>
<feBlend mode="normal" in2="BackgroundImageFix" result="effect1_dropShadow_0_1"/>
<feBlend mode="normal" in="SourceGraphic" in2="effect1_dropShadow_0_1" result="shape"/>
</filter>
<clipPath id="clip0_0_1">
<rect width="1000" height="456" fill="white"/>
</clipPath>
</defs>
</svg>
