<svg width="800" height="300" viewBox="0 0 800 300" fill="none" xmlns="http://www.w3.org/2000/svg">
<rect width="800" height="300" fill="#2B2B2B"/>
<rect width="800" height="300" fill="#414141"/>
<path d="M133.73 136.035C136.003 136.035 138.002 136.493 139.725 137.41C141.448 138.29 142.805 139.445 143.795 140.875V136.53H151.55V167.22C151.55 170.043 150.982 172.555 149.845 174.755C148.708 176.992 147.003 178.752 144.73 180.035C142.457 181.355 139.707 182.015 136.48 182.015C132.153 182.015 128.597 181.007 125.81 178.99C123.06 176.973 121.502 174.223 121.135 170.74H128.78C129.183 172.133 130.045 173.233 131.365 174.04C132.722 174.883 134.353 175.305 136.26 175.305C138.497 175.305 140.312 174.627 141.705 173.27C143.098 171.95 143.795 169.933 143.795 167.22V162.49C142.805 163.92 141.43 165.112 139.67 166.065C137.947 167.018 135.967 167.495 133.73 167.495C131.163 167.495 128.817 166.835 126.69 165.515C124.563 164.195 122.877 162.343 121.63 159.96C120.42 157.54 119.815 154.772 119.815 151.655C119.815 148.575 120.42 145.843 121.63 143.46C122.877 141.077 124.545 139.243 126.635 137.96C128.762 136.677 131.127 136.035 133.73 136.035ZM143.795 151.765C143.795 149.895 143.428 148.3 142.695 146.98C141.962 145.623 140.972 144.597 139.725 143.9C138.478 143.167 137.14 142.8 135.71 142.8C134.28 142.8 132.96 143.148 131.75 143.845C130.54 144.542 129.55 145.568 128.78 146.925C128.047 148.245 127.68 149.822 127.68 151.655C127.68 153.488 128.047 155.102 128.78 156.495C129.55 157.852 130.54 158.897 131.75 159.63C132.997 160.363 134.317 160.73 135.71 160.73C137.14 160.73 138.478 160.382 139.725 159.685C140.972 158.952 141.962 157.925 142.695 156.605C143.428 155.248 143.795 153.635 143.795 151.765ZM157.09 151.655C157.09 148.575 157.695 145.843 158.905 143.46C160.152 141.077 161.82 139.243 163.91 137.96C166.037 136.677 168.402 136.035 171.005 136.035C173.279 136.035 175.259 136.493 176.945 137.41C178.669 138.327 180.044 139.482 181.07 140.875V136.53H188.825V167H181.07V162.545C180.08 163.975 178.705 165.167 176.945 166.12C175.222 167.037 173.224 167.495 170.95 167.495C168.384 167.495 166.037 166.835 163.91 165.515C161.82 164.195 160.152 162.343 158.905 159.96C157.695 157.54 157.09 154.772 157.09 151.655ZM181.07 151.765C181.07 149.895 180.704 148.3 179.97 146.98C179.237 145.623 178.247 144.597 177 143.9C175.754 143.167 174.415 142.8 172.985 142.8C171.555 142.8 170.235 143.148 169.025 143.845C167.815 144.542 166.825 145.568 166.055 146.925C165.322 148.245 164.955 149.822 164.955 151.655C164.955 153.488 165.322 155.102 166.055 156.495C166.825 157.852 167.815 158.897 169.025 159.63C170.272 160.363 171.592 160.73 172.985 160.73C174.415 160.73 175.754 160.382 177 159.685C178.247 158.952 179.237 157.925 179.97 156.605C180.704 155.248 181.07 153.635 181.07 151.765ZM234.186 136.09C237.926 136.09 240.932 137.245 243.206 139.555C245.516 141.828 246.671 145.018 246.671 149.125V167H238.971V150.17C238.971 147.787 238.366 145.972 237.156 144.725C235.946 143.442 234.296 142.8 232.206 142.8C230.116 142.8 228.447 143.442 227.201 144.725C225.991 145.972 225.386 147.787 225.386 150.17V167H217.686V150.17C217.686 147.787 217.081 145.972 215.871 144.725C214.661 143.442 213.011 142.8 210.921 142.8C208.794 142.8 207.107 143.442 205.861 144.725C204.651 145.972 204.046 147.787 204.046 150.17V167H196.346V136.53H204.046V140.215C205.036 138.932 206.301 137.923 207.841 137.19C209.417 136.457 211.141 136.09 213.011 136.09C215.394 136.09 217.521 136.603 219.391 137.63C221.261 138.62 222.709 140.05 223.736 141.92C224.726 140.16 226.156 138.748 228.026 137.685C229.932 136.622 231.986 136.09 234.186 136.09ZM282.303 151.105C282.303 152.205 282.229 153.195 282.083 154.075H259.808C259.991 156.275 260.761 157.998 262.118 159.245C263.474 160.492 265.143 161.115 267.123 161.115C269.983 161.115 272.018 159.887 273.228 157.43H281.533C280.653 160.363 278.966 162.783 276.473 164.69C273.979 166.56 270.918 167.495 267.288 167.495C264.354 167.495 261.714 166.853 259.368 165.57C257.058 164.25 255.243 162.398 253.923 160.015C252.639 157.632 251.998 154.882 251.998 151.765C251.998 148.612 252.639 145.843 253.923 143.46C255.206 141.077 257.003 139.243 259.313 137.96C261.623 136.677 264.281 136.035 267.288 136.035C270.184 136.035 272.769 136.658 275.043 137.905C277.353 139.152 279.131 140.93 280.378 143.24C281.661 145.513 282.303 148.135 282.303 151.105ZM274.328 148.905C274.291 146.925 273.576 145.348 272.183 144.175C270.789 142.965 269.084 142.36 267.068 142.36C265.161 142.36 263.548 142.947 262.228 144.12C260.944 145.257 260.156 146.852 259.863 148.905H274.328ZM325.763 136.09C329.503 136.09 332.51 137.245 334.783 139.555C337.093 141.828 338.248 145.018 338.248 149.125V167H330.548V150.17C330.548 147.787 329.943 145.972 328.733 144.725C327.523 143.442 325.873 142.8 323.783 142.8C321.693 142.8 320.025 143.442 318.778 144.725C317.568 145.972 316.963 147.787 316.963 150.17V167H309.263V150.17C309.263 147.787 308.658 145.972 307.448 144.725C306.238 143.442 304.588 142.8 302.498 142.8C300.371 142.8 298.685 143.442 297.438 144.725C296.228 145.972 295.623 147.787 295.623 150.17V167H287.923V136.53H295.623V140.215C296.613 138.932 297.878 137.923 299.418 137.19C300.995 136.457 302.718 136.09 304.588 136.09C306.971 136.09 309.098 136.603 310.968 137.63C312.838 138.62 314.286 140.05 315.313 141.92C316.303 140.16 317.733 138.748 319.603 137.685C321.51 136.622 323.563 136.09 325.763 136.09ZM343.575 151.655C343.575 148.575 344.18 145.843 345.39 143.46C346.636 141.077 348.305 139.243 350.395 137.96C352.521 136.677 354.886 136.035 357.49 136.035C359.763 136.035 361.743 136.493 363.43 137.41C365.153 138.327 366.528 139.482 367.555 140.875V136.53H375.31V167H367.555V162.545C366.565 163.975 365.19 165.167 363.43 166.12C361.706 167.037 359.708 167.495 357.435 167.495C354.868 167.495 352.521 166.835 350.395 165.515C348.305 164.195 346.636 162.343 345.39 159.96C344.18 157.54 343.575 154.772 343.575 151.655ZM367.555 151.765C367.555 149.895 367.188 148.3 366.455 146.98C365.721 145.623 364.731 144.597 363.485 143.9C362.238 143.167 360.9 142.8 359.47 142.8C358.04 142.8 356.72 143.148 355.51 143.845C354.3 144.542 353.31 145.568 352.54 146.925C351.806 148.245 351.44 149.822 351.44 151.655C351.44 153.488 351.806 155.102 352.54 156.495C353.31 157.852 354.3 158.897 355.51 159.63C356.756 160.363 358.076 160.73 359.47 160.73C360.9 160.73 362.238 160.382 363.485 159.685C364.731 158.952 365.721 157.925 366.455 156.605C367.188 155.248 367.555 153.635 367.555 151.765ZM394.49 167.495C391.997 167.495 389.76 167.055 387.78 166.175C385.8 165.258 384.223 164.03 383.05 162.49C381.913 160.95 381.29 159.245 381.18 157.375H388.935C389.082 158.548 389.65 159.52 390.64 160.29C391.667 161.06 392.932 161.445 394.435 161.445C395.902 161.445 397.038 161.152 397.845 160.565C398.688 159.978 399.11 159.227 399.11 158.31C399.11 157.32 398.597 156.587 397.57 156.11C396.58 155.597 394.985 155.047 392.785 154.46C390.512 153.91 388.642 153.342 387.175 152.755C385.745 152.168 384.498 151.27 383.435 150.06C382.408 148.85 381.895 147.218 381.895 145.165C381.895 143.478 382.372 141.938 383.325 140.545C384.315 139.152 385.708 138.052 387.505 137.245C389.338 136.438 391.483 136.035 393.94 136.035C397.57 136.035 400.467 136.952 402.63 138.785C404.793 140.582 405.985 143.02 406.205 146.1H398.835C398.725 144.89 398.212 143.937 397.295 143.24C396.415 142.507 395.223 142.14 393.72 142.14C392.327 142.14 391.245 142.397 390.475 142.91C389.742 143.423 389.375 144.138 389.375 145.055C389.375 146.082 389.888 146.87 390.915 147.42C391.942 147.933 393.537 148.465 395.7 149.015C397.9 149.565 399.715 150.133 401.145 150.72C402.575 151.307 403.803 152.223 404.83 153.47C405.893 154.68 406.443 156.293 406.48 158.31C406.48 160.07 405.985 161.647 404.995 163.04C404.042 164.433 402.648 165.533 400.815 166.34C399.018 167.11 396.91 167.495 394.49 167.495ZM421.766 142.855V157.595C421.766 158.622 422.004 159.373 422.481 159.85C422.994 160.29 423.838 160.51 425.011 160.51H428.586V167H423.746C417.256 167 414.011 163.847 414.011 157.54V142.855H410.381V136.53H414.011V128.995H421.766V136.53H428.586V142.855H421.766ZM462.449 151.105C462.449 152.205 462.376 153.195 462.229 154.075H439.954C440.137 156.275 440.907 157.998 442.264 159.245C443.621 160.492 445.289 161.115 447.269 161.115C450.129 161.115 452.164 159.887 453.374 157.43H461.679C460.799 160.363 459.112 162.783 456.619 164.69C454.126 166.56 451.064 167.495 447.434 167.495C444.501 167.495 441.861 166.853 439.514 165.57C437.204 164.25 435.389 162.398 434.069 160.015C432.786 157.632 432.144 154.882 432.144 151.765C432.144 148.612 432.786 145.843 434.069 143.46C435.352 141.077 437.149 139.243 439.459 137.96C441.769 136.677 444.427 136.035 447.434 136.035C450.331 136.035 452.916 136.658 455.189 137.905C457.499 139.152 459.277 140.93 460.524 143.24C461.807 145.513 462.449 148.135 462.449 151.105ZM454.474 148.905C454.437 146.925 453.722 145.348 452.329 144.175C450.936 142.965 449.231 142.36 447.214 142.36C445.307 142.36 443.694 142.947 442.374 144.12C441.091 145.257 440.302 146.852 440.009 148.905H454.474ZM475.769 141.26C476.759 139.647 478.043 138.382 479.619 137.465C481.233 136.548 483.066 136.09 485.119 136.09V144.175H483.084C480.664 144.175 478.831 144.743 477.584 145.88C476.374 147.017 475.769 148.997 475.769 151.82V167H468.069V136.53H475.769V141.26ZM488.491 134V126.905H501.746V167H493.826V134H488.491ZM511.773 158.31C515.293 155.377 518.098 152.938 520.188 150.995C522.278 149.015 524.019 146.962 525.413 144.835C526.806 142.708 527.503 140.618 527.503 138.565C527.503 136.695 527.063 135.228 526.183 134.165C525.303 133.102 523.946 132.57 522.113 132.57C520.279 132.57 518.868 133.193 517.878 134.44C516.888 135.65 516.374 137.318 516.338 139.445H508.858C509.004 135.045 510.306 131.708 512.763 129.435C515.256 127.162 518.409 126.025 522.223 126.025C526.403 126.025 529.611 127.143 531.848 129.38C534.084 131.58 535.203 134.495 535.203 138.125C535.203 140.985 534.433 143.717 532.893 146.32C531.353 148.923 529.593 151.197 527.613 153.14C525.633 155.047 523.048 157.357 519.858 160.07H536.083V166.45H508.913V160.73L511.773 158.31ZM541.045 137.465C541.228 133.798 542.511 130.975 544.895 128.995C547.315 126.978 550.486 125.97 554.41 125.97C557.086 125.97 559.378 126.447 561.285 127.4C563.191 128.317 564.621 129.582 565.575 131.195C566.565 132.772 567.06 134.568 567.06 136.585C567.06 138.895 566.455 140.857 565.245 142.47C564.071 144.047 562.66 145.11 561.01 145.66V145.88C563.136 146.54 564.786 147.713 565.96 149.4C567.17 151.087 567.775 153.25 567.775 155.89C567.775 158.09 567.261 160.052 566.235 161.775C565.245 163.498 563.76 164.855 561.78 165.845C559.836 166.798 557.49 167.275 554.74 167.275C550.596 167.275 547.223 166.23 544.62 164.14C542.016 162.05 540.641 158.97 540.495 154.9H547.975C548.048 156.697 548.653 158.145 549.79 159.245C550.963 160.308 552.558 160.84 554.575 160.84C556.445 160.84 557.875 160.327 558.865 159.3C559.891 158.237 560.405 156.88 560.405 155.23C560.405 153.03 559.708 151.453 558.315 150.5C556.921 149.547 554.758 149.07 551.825 149.07H550.23V142.745H551.825C557.031 142.745 559.635 141.003 559.635 137.52C559.635 135.943 559.158 134.715 558.205 133.835C557.288 132.955 555.95 132.515 554.19 132.515C552.466 132.515 551.128 132.992 550.175 133.945C549.258 134.862 548.726 136.035 548.58 137.465H541.045ZM573.969 137.465C574.153 133.798 575.436 130.975 577.819 128.995C580.239 126.978 583.411 125.97 587.334 125.97C590.011 125.97 592.303 126.447 594.209 127.4C596.116 128.317 597.546 129.582 598.499 131.195C599.489 132.772 599.984 134.568 599.984 136.585C599.984 138.895 599.379 140.857 598.169 142.47C596.996 144.047 595.584 145.11 593.934 145.66V145.88C596.061 146.54 597.711 147.713 598.884 149.4C600.094 151.087 600.699 153.25 600.699 155.89C600.699 158.09 600.186 160.052 599.159 161.775C598.169 163.498 596.684 164.855 594.704 165.845C592.761 166.798 590.414 167.275 587.664 167.275C583.521 167.275 580.148 166.23 577.544 164.14C574.941 162.05 573.566 158.97 573.419 154.9H580.899C580.973 156.697 581.578 158.145 582.714 159.245C583.888 160.308 585.483 160.84 587.499 160.84C589.369 160.84 590.799 160.327 591.789 159.3C592.816 158.237 593.329 156.88 593.329 155.23C593.329 153.03 592.633 151.453 591.239 150.5C589.846 149.547 587.683 149.07 584.749 149.07H583.154V142.745H584.749C589.956 142.745 592.559 141.003 592.559 137.52C592.559 135.943 592.083 134.715 591.129 133.835C590.213 132.955 588.874 132.515 587.114 132.515C585.391 132.515 584.053 132.992 583.099 133.945C582.183 134.862 581.651 136.035 581.504 137.465H573.969ZM633.734 133.56H615.914V142.965C616.684 142.012 617.784 141.242 619.214 140.655C620.644 140.032 622.166 139.72 623.779 139.72C626.712 139.72 629.114 140.362 630.984 141.645C632.854 142.928 634.211 144.578 635.054 146.595C635.897 148.575 636.319 150.702 636.319 152.975C636.319 157.192 635.109 160.583 632.689 163.15C630.306 165.717 626.896 167 622.459 167C618.279 167 614.942 165.955 612.449 163.865C609.956 161.775 608.544 159.043 608.214 155.67H615.694C616.024 157.137 616.757 158.31 617.894 159.19C619.067 160.07 620.552 160.51 622.349 160.51C624.512 160.51 626.144 159.832 627.244 158.475C628.344 157.118 628.894 155.322 628.894 153.085C628.894 150.812 628.326 149.088 627.189 147.915C626.089 146.705 624.457 146.1 622.294 146.1C620.754 146.1 619.471 146.485 618.444 147.255C617.417 148.025 616.684 149.052 616.244 150.335H608.874V126.795H633.734V133.56ZM662.97 136.915C662.603 135.375 661.961 134.22 661.045 133.45C660.165 132.68 658.881 132.295 657.195 132.295C654.665 132.295 652.795 133.322 651.585 135.375C650.411 137.392 649.806 140.692 649.77 145.275C650.65 143.808 651.933 142.672 653.62 141.865C655.306 141.022 657.14 140.6 659.12 140.6C661.503 140.6 663.611 141.113 665.445 142.14C667.278 143.167 668.708 144.67 669.735 146.65C670.761 148.593 671.275 150.94 671.275 153.69C671.275 156.293 670.743 158.622 669.68 160.675C668.653 162.692 667.131 164.268 665.115 165.405C663.098 166.542 660.696 167.11 657.91 167.11C654.096 167.11 651.09 166.267 648.89 164.58C646.726 162.893 645.205 160.547 644.325 157.54C643.481 154.497 643.06 150.757 643.06 146.32C643.06 139.61 644.215 134.55 646.525 131.14C648.835 127.693 652.483 125.97 657.47 125.97C661.32 125.97 664.308 127.015 666.435 129.105C668.561 131.195 669.79 133.798 670.12 136.915H662.97ZM657.36 146.925C655.416 146.925 653.785 147.493 652.465 148.63C651.145 149.767 650.485 151.417 650.485 153.58C650.485 155.743 651.09 157.448 652.3 158.695C653.546 159.942 655.288 160.565 657.525 160.565C659.505 160.565 661.063 159.96 662.2 158.75C663.373 157.54 663.96 155.908 663.96 153.855C663.96 151.728 663.391 150.042 662.255 148.795C661.155 147.548 659.523 146.925 657.36 146.925Z" fill="#278FDA"/>
</svg>
