<svg width="912" height="322" viewBox="0 0 912 322" fill="none" xmlns="http://www.w3.org/2000/svg">
<g clip-path="url(#clip0_1_2)">
<rect width="912" height="322" fill="#121212"/>
<g filter="url(#filter0_f_1_2)">
<circle cx="-72" cy="409" r="350" fill="#3C697C"/>
</g>
<path d="M108.048 117.944C112.613 117.944 116.581 118.883 119.952 120.76C123.365 122.595 125.989 125.24 127.824 128.696C129.701 132.152 130.64 136.227 130.64 140.92C130.64 145.571 129.701 149.645 127.824 153.144C125.989 156.6 123.365 159.267 119.952 161.144C116.581 162.979 112.613 163.896 108.048 163.896C103.483 163.896 99.4933 162.979 96.08 161.144C92.7093 159.267 90.0853 156.6 88.208 153.144C86.3733 149.645 85.456 145.571 85.456 140.92C85.456 136.227 86.3733 132.152 88.208 128.696C90.0853 125.24 92.7093 122.595 96.08 120.76C99.4933 118.883 103.483 117.944 108.048 117.944ZM97.232 140.92C97.232 145.528 98.192 149.112 100.112 151.672C102.032 154.189 104.677 155.448 108.048 155.448C111.419 155.448 114.064 154.189 115.984 151.672C117.904 149.112 118.864 145.528 118.864 140.92C118.864 136.269 117.904 132.685 115.984 130.168C114.064 127.651 111.419 126.392 108.048 126.392C104.677 126.392 102.032 127.651 100.112 130.168C98.192 132.685 97.232 136.269 97.232 140.92ZM156.566 127.928C157.504 127.928 158.379 127.992 159.19 128.12V137.528C158.763 137.485 158.144 137.464 157.334 137.464C154.902 137.464 152.96 137.891 151.51 138.744C150.059 139.597 149.014 140.963 148.374 142.84C147.734 144.717 147.414 147.256 147.414 150.456V163H135.894V128.824H147.414V135.736L149.846 130.936C150.742 129.955 151.787 129.208 152.982 128.696C154.219 128.184 155.414 127.928 156.566 127.928ZM162.769 128.824H174.289V163H162.769V128.824ZM162.705 115.128H174.417V126.392H162.705V115.128ZM197.654 127.928C201.366 127.928 204.609 128.675 207.382 130.168C210.155 131.619 212.289 133.709 213.782 136.44C215.275 139.128 216.022 142.285 216.022 145.912C216.022 149.539 215.275 152.717 213.782 155.448C212.289 158.136 210.155 160.227 207.382 161.72C204.609 163.171 201.366 163.896 197.654 163.896C193.942 163.896 190.699 163.171 187.926 161.72C185.153 160.227 183.019 158.136 181.526 155.448C180.033 152.717 179.286 149.539 179.286 145.912C179.286 142.285 180.033 139.128 181.526 136.44C183.019 133.709 185.153 131.619 187.926 130.168C190.699 128.675 193.942 127.928 197.654 127.928ZM191.062 145.912C191.062 149.24 191.638 151.779 192.79 153.528C193.942 155.235 195.563 156.088 197.654 156.088C199.745 156.088 201.366 155.235 202.518 153.528C203.67 151.779 204.246 149.24 204.246 145.912C204.246 142.541 203.67 140.003 202.518 138.296C201.366 136.589 199.745 135.736 197.654 135.736C195.563 135.736 193.942 136.589 192.79 138.296C191.638 140.003 191.062 142.541 191.062 145.912ZM255.387 137.208C255.6 138.659 255.707 140.813 255.707 143.672V163H244.187V145.592C244.187 143.629 244.144 142.072 244.059 140.92C243.931 139.256 243.397 137.976 242.459 137.08C241.563 136.184 240.261 135.736 238.555 135.736C236.72 135.736 235.248 136.675 234.139 138.552C233.072 140.387 232.539 143.16 232.539 146.872V163H221.019V128.824H232.539V134.136L235.611 129.912C237.787 128.589 240.347 127.928 243.291 127.928C246.789 127.928 249.563 128.739 251.611 130.36C253.659 131.939 254.917 134.221 255.387 137.208ZM295.28 117.944C301.339 117.944 306.053 119.373 309.424 122.232C312.837 125.048 314.779 128.76 315.248 133.368L315.312 134.008H303.792L303.664 133.368C302.725 128.717 299.888 126.392 295.152 126.392C292.293 126.392 289.968 127.608 288.176 130.04C286.384 132.429 285.488 135.928 285.488 140.536C285.488 145.741 286.384 149.539 288.176 151.928C290.011 154.275 292.357 155.448 295.216 155.448C297.435 155.448 299.248 154.787 300.656 153.464C302.107 152.141 303.067 150.264 303.536 147.832L303.664 147.192H315.184L315.12 147.832C314.608 152.995 312.517 156.963 308.848 159.736C305.179 162.509 300.507 163.896 294.832 163.896C290.821 163.896 287.195 163.043 283.952 161.336C280.709 159.587 278.149 157.005 276.272 153.592C274.395 150.179 273.456 146.061 273.456 141.24C273.456 136.291 274.416 132.067 276.336 128.568C278.299 125.069 280.923 122.424 284.208 120.632C287.536 118.84 291.227 117.944 295.28 117.944ZM354.824 137.208C355.037 138.659 355.144 140.813 355.144 143.672V163H343.624V145.592C343.624 143.629 343.581 142.072 343.496 140.92C343.368 139.256 342.835 137.976 341.896 137.08C341 136.184 339.699 135.736 337.992 135.736C336.157 135.736 334.685 136.675 333.576 138.552C332.509 140.387 331.976 143.16 331.976 146.872V163H320.456V115.64H331.976V134.136L335.048 129.912C337.224 128.589 339.784 127.928 342.728 127.928C346.227 127.928 349 128.739 351.048 130.36C353.096 131.939 354.355 134.221 354.824 137.208ZM382.316 127.928C383.254 127.928 384.129 127.992 384.94 128.12V137.528C384.513 137.485 383.894 137.464 383.084 137.464C380.652 137.464 378.71 137.891 377.26 138.744C375.809 139.597 374.764 140.963 374.124 142.84C373.484 144.717 373.164 147.256 373.164 150.456V163H361.644V128.824H373.164V135.736L375.596 130.936C376.492 129.955 377.537 129.208 378.732 128.696C379.969 128.184 381.164 127.928 382.316 127.928ZM388.519 128.824H400.039V163H388.519V128.824ZM388.455 115.128H400.167V126.392H388.455V115.128ZM421.036 127.928C425.132 127.928 428.417 128.931 430.892 130.936C433.409 132.941 434.903 135.565 435.372 138.808H424.044C423.489 136.333 422.252 135.096 420.332 135.096C419.521 135.096 418.86 135.331 418.348 135.8C417.836 136.269 417.58 136.867 417.58 137.592C417.58 138.616 418.135 139.491 419.244 140.216C420.396 140.899 422.529 141.624 425.644 142.392C429.057 143.245 431.681 144.504 433.516 146.168C435.351 147.789 436.268 150.136 436.268 153.208C436.268 156.707 434.839 159.373 431.98 161.208C429.164 163 425.559 163.896 421.164 163.896C416.428 163.896 412.588 162.915 409.644 160.952C406.743 158.989 405.079 156.131 404.652 152.376H415.98C416.279 153.699 416.897 154.765 417.836 155.576C418.775 156.344 419.863 156.728 421.1 156.728C422.167 156.728 423.041 156.515 423.724 156.088C424.407 155.619 424.748 154.957 424.748 154.104C424.748 153.037 424.129 152.163 422.892 151.48C421.697 150.755 419.564 150.029 416.492 149.304C413.079 148.493 410.476 147.277 408.684 145.656C406.935 143.992 406.06 141.752 406.06 138.936C406.06 135.565 407.404 132.899 410.092 130.936C412.823 128.931 416.471 127.928 421.036 127.928ZM454.593 148.856C454.593 150.477 454.614 151.587 454.657 152.184C454.742 153.379 454.977 154.275 455.361 154.872C455.745 155.427 456.385 155.811 457.281 156.024C458.177 156.195 459.563 156.237 461.441 156.152V163.32C459.222 163.704 456.961 163.896 454.657 163.896C450.561 163.896 447.681 163.277 446.017 162.04C444.353 160.76 443.414 158.755 443.201 156.024C443.115 154.701 443.073 152.867 443.073 150.52V136.248H437.633V129.08H443.073V120.248H454.593V129.08H462.145V136.248H454.593V148.856ZM482.467 127.928C486.179 127.928 489.421 128.675 492.195 130.168C494.968 131.619 497.101 133.709 498.595 136.44C500.088 139.128 500.835 142.285 500.835 145.912C500.835 149.539 500.088 152.717 498.595 155.448C497.101 158.136 494.968 160.227 492.195 161.72C489.421 163.171 486.179 163.896 482.467 163.896C478.755 163.896 475.512 163.171 472.739 161.72C469.965 160.227 467.832 158.136 466.339 155.448C464.845 152.717 464.099 149.539 464.099 145.912C464.099 142.285 464.845 139.128 466.339 136.44C467.832 133.709 469.965 131.619 472.739 130.168C475.512 128.675 478.755 127.928 482.467 127.928ZM475.875 145.912C475.875 149.24 476.451 151.779 477.603 153.528C478.755 155.235 480.376 156.088 482.467 156.088C484.557 156.088 486.179 155.235 487.331 153.528C488.483 151.779 489.059 149.24 489.059 145.912C489.059 142.541 488.483 140.003 487.331 138.296C486.179 136.589 484.557 135.736 482.467 135.736C480.376 135.736 478.755 136.589 477.603 138.296C476.451 140.003 475.875 142.541 475.875 145.912ZM528.615 127.928C531.644 127.928 534.29 128.653 536.551 130.104C538.855 131.555 540.604 133.581 541.799 136.184C543.036 138.787 543.655 141.773 543.655 145.144C543.655 149.069 542.93 152.44 541.479 155.256C540.028 158.072 538.066 160.227 535.591 161.72C533.159 163.171 530.45 163.896 527.463 163.896C526.012 163.896 524.54 163.747 523.047 163.448C521.596 163.149 520.444 162.744 519.591 162.232L517.351 158.584V175.544H505.831V128.824H517.351V133.816L519.911 130.04C520.85 129.357 522.087 128.845 523.623 128.504C525.159 128.12 526.823 127.928 528.615 127.928ZM517.351 146.936C517.351 150.093 518.012 152.419 519.335 153.912C520.7 155.363 522.364 156.088 524.327 156.088C526.631 156.088 528.466 155.213 529.831 153.464C531.196 151.672 531.879 149.091 531.879 145.72C531.879 142.605 531.196 140.173 529.831 138.424C528.466 136.632 526.738 135.736 524.647 135.736C522.386 135.736 520.594 136.504 519.271 138.04C517.991 139.576 517.351 142.051 517.351 145.464V146.936ZM583.012 137.208C583.225 138.659 583.332 140.813 583.332 143.672V163H571.812V145.592C571.812 143.629 571.769 142.072 571.684 140.92C571.556 139.256 571.022 137.976 570.084 137.08C569.188 136.184 567.886 135.736 566.18 135.736C564.345 135.736 562.873 136.675 561.764 138.552C560.697 140.387 560.164 143.16 560.164 146.872V163H548.644V115.64H560.164V134.136L563.236 129.912C565.412 128.589 567.972 127.928 570.916 127.928C574.414 127.928 577.188 128.739 579.236 130.36C581.284 131.939 582.542 134.221 583.012 137.208ZM623.303 145.464C623.303 146.531 623.239 147.64 623.111 148.792H599.303C599.559 151.48 600.22 153.379 601.287 154.488C602.396 155.555 603.847 156.088 605.639 156.088C607.26 156.088 608.562 155.704 609.543 154.936C610.524 154.168 611.122 153.123 611.335 151.8H622.663C621.682 155.64 619.676 158.627 616.647 160.76C613.618 162.851 609.906 163.896 605.511 163.896C602.183 163.896 599.175 163.235 596.487 161.912C593.842 160.589 591.751 158.584 590.215 155.896C588.679 153.208 587.911 149.923 587.911 146.04C587.911 142.669 588.636 139.619 590.087 136.888C591.58 134.115 593.692 131.939 596.423 130.36C599.196 128.739 602.439 127.928 606.151 127.928C609.778 127.928 612.871 128.76 615.431 130.424C618.034 132.045 619.996 134.2 621.319 136.888C622.642 139.576 623.303 142.435 623.303 145.464ZM611.271 141.752C610.631 137.741 608.732 135.736 605.575 135.736C602.375 135.736 600.412 137.741 599.687 141.752H611.271ZM648.941 127.928C649.879 127.928 650.754 127.992 651.565 128.12V137.528C651.138 137.485 650.519 137.464 649.709 137.464C647.277 137.464 645.335 137.891 643.885 138.744C642.434 139.597 641.389 140.963 640.749 142.84C640.109 144.717 639.789 147.256 639.789 150.456V163H628.269V128.824H639.789V135.736L642.221 130.936C643.117 129.955 644.162 129.208 645.357 128.696C646.594 128.184 647.789 127.928 648.941 127.928ZM702.49 152.248C702.788 154.723 703.194 156.813 703.706 158.52C704.218 160.184 704.922 161.677 705.818 163H693.274C692.25 159.843 691.567 156.899 691.226 154.168C690.927 151.736 690.308 149.837 689.37 148.472C688.431 147.107 687.236 146.381 685.786 146.296C684.932 146.253 683.716 146.232 682.138 146.232H679.578V163H668.058V118.84H685.594C688.239 118.84 690.543 118.947 692.506 119.16C696.047 119.587 698.927 120.739 701.146 122.616C703.364 124.493 704.474 127.245 704.474 130.872C704.474 136.461 701.508 140.131 695.578 141.88C697.796 142.691 699.418 143.928 700.442 145.592C701.466 147.213 702.148 149.432 702.49 152.248ZM683.738 137.912C685.231 137.912 686.255 137.891 686.81 137.848C688.516 137.72 689.882 137.293 690.906 136.568C691.93 135.8 692.442 134.563 692.442 132.856C692.442 131.149 691.972 129.933 691.034 129.208C690.095 128.44 688.794 127.992 687.13 127.864C686.575 127.821 685.551 127.8 684.058 127.8H679.578V137.912H683.738ZM710.019 128.824H721.539V163H710.019V128.824ZM709.955 115.128H721.667V126.392H709.955V115.128ZM739.976 163H728.456V115.96H739.976V143.16L752.008 128.824H765.512L751.048 144.504L765.704 163H751.56L742.408 150.328L739.976 153.016V163ZM800.553 145.464C800.553 146.531 800.489 147.64 800.361 148.792H776.553C776.809 151.48 777.47 153.379 778.537 154.488C779.646 155.555 781.097 156.088 782.889 156.088C784.51 156.088 785.812 155.704 786.793 154.936C787.774 154.168 788.372 153.123 788.585 151.8H799.913C798.932 155.64 796.926 158.627 793.897 160.76C790.868 162.851 787.156 163.896 782.761 163.896C779.433 163.896 776.425 163.235 773.737 161.912C771.092 160.589 769.001 158.584 767.465 155.896C765.929 153.208 765.161 149.923 765.161 146.04C765.161 142.669 765.886 139.619 767.337 136.888C768.83 134.115 770.942 131.939 773.673 130.36C776.446 128.739 779.689 127.928 783.401 127.928C787.028 127.928 790.121 128.76 792.681 130.424C795.284 132.045 797.246 134.2 798.569 136.888C799.892 139.576 800.553 142.435 800.553 145.464ZM788.521 141.752C787.881 137.741 785.982 135.736 782.825 135.736C779.625 135.736 777.662 137.741 776.937 141.752H788.521ZM826.191 127.928C827.129 127.928 828.004 127.992 828.815 128.12V137.528C828.388 137.485 827.769 137.464 826.959 137.464C824.527 137.464 822.585 137.891 821.135 138.744C819.684 139.597 818.639 140.963 817.999 142.84C817.359 144.717 817.039 147.256 817.039 150.456V163H805.519V128.824H817.039V135.736L819.471 130.936C820.367 129.955 821.412 129.208 822.607 128.696C823.844 128.184 825.039 127.928 826.191 127.928Z" fill="url(#paint0_linear_1_2)"/>
<path d="M167.208 204.688V209.168H157.32V218H151.56V195.92H168.168V200.4H157.32V204.688H167.208ZM181.68 218V215.12L180.144 217.456C179.056 218.117 177.776 218.448 176.304 218.448C174.618 218.448 173.232 218.043 172.144 217.232C171.077 216.4 170.448 215.365 170.256 214.128C170.149 213.403 170.096 212.325 170.096 210.896V200.912H175.856V209.616C175.856 210.405 175.898 211.184 175.984 211.952C176.09 212.805 176.357 213.456 176.784 213.904C177.232 214.331 177.893 214.544 178.768 214.544C179.664 214.544 180.368 214.171 180.88 213.424C181.413 212.677 181.68 211.728 181.68 210.576V200.912H187.44V218H181.68ZM196.516 211.856C196.516 212.624 196.538 213.147 196.58 213.424C196.623 213.765 196.762 214 196.996 214.128C197.252 214.235 197.743 214.277 198.468 214.256V218.16C197.295 218.267 196.175 218.32 195.108 218.32C192.378 218.32 190.948 217.211 190.82 214.992C190.778 214.395 190.756 213.381 190.756 211.952V194.48H196.516V211.856ZM206.266 211.856C206.266 212.624 206.288 213.147 206.33 213.424C206.373 213.765 206.512 214 206.746 214.128C207.002 214.235 207.493 214.277 208.218 214.256V218.16C207.045 218.267 205.925 218.32 204.858 218.32C202.128 218.32 200.698 217.211 200.57 214.992C200.528 214.395 200.506 213.381 200.506 211.952V194.48H206.266V211.856ZM224.585 195.472C227.337 195.472 229.417 196.133 230.825 197.456C232.233 198.757 233.065 200.517 233.321 202.736H227.561C227.433 201.776 227.113 201.029 226.601 200.496C226.089 199.963 225.375 199.696 224.457 199.696C223.775 199.696 223.231 199.867 222.825 200.208C222.441 200.528 222.249 201.019 222.249 201.68C222.249 202.405 222.58 203.003 223.241 203.472C223.924 203.941 225.151 204.389 226.921 204.816C229.289 205.371 231.017 206.235 232.105 207.408C233.215 208.581 233.769 210.043 233.769 211.792C233.769 213.2 233.364 214.405 232.553 215.408C231.764 216.411 230.708 217.168 229.385 217.68C228.063 218.192 226.633 218.448 225.097 218.448C222.196 218.448 219.892 217.851 218.185 216.656C216.479 215.461 215.54 213.659 215.369 211.248H221.129C221.321 212.229 221.769 212.976 222.473 213.488C223.177 213.979 223.999 214.224 224.937 214.224C225.748 214.224 226.42 214.032 226.953 213.648C227.487 213.264 227.753 212.773 227.753 212.176C227.753 211.557 227.476 211.013 226.921 210.544C226.388 210.075 225.481 209.68 224.201 209.36C222.367 208.912 220.884 208.411 219.753 207.856C218.623 207.28 217.748 206.544 217.129 205.648C216.532 204.731 216.233 203.557 216.233 202.128C216.233 200.763 216.617 199.579 217.385 198.576C218.153 197.573 219.167 196.805 220.425 196.272C221.705 195.739 223.092 195.472 224.585 195.472ZM242.953 210.928C242.953 211.739 242.963 212.293 242.985 212.592C243.027 213.189 243.145 213.637 243.337 213.936C243.529 214.213 243.849 214.405 244.297 214.512C244.745 214.597 245.438 214.619 246.377 214.576V218.16C245.267 218.352 244.137 218.448 242.985 218.448C240.937 218.448 239.497 218.139 238.665 217.52C237.833 216.88 237.363 215.877 237.257 214.512C237.214 213.851 237.193 212.933 237.193 211.76V204.624H234.473V201.04H237.193V196.624H242.953V201.04H246.729V204.624H242.953V210.928ZM257.781 217.296C256.565 218.064 255.157 218.448 253.557 218.448C252.597 218.448 251.701 218.256 250.869 217.872C250.037 217.467 249.365 216.88 248.853 216.112C248.341 215.344 248.085 214.437 248.085 213.392C248.085 211.557 248.906 210.117 250.549 209.072C252.192 208.027 254.453 207.504 257.333 207.504H258.421V207.248C258.421 206.779 258.4 206.363 258.357 206C258.314 205.531 258.112 205.147 257.749 204.848C257.386 204.528 256.906 204.368 256.309 204.368C255.648 204.368 255.125 204.571 254.741 204.976C254.357 205.381 254.144 205.957 254.101 206.704L248.661 206.736C248.661 205.435 249.013 204.315 249.717 203.376C250.421 202.437 251.37 201.723 252.565 201.232C253.781 200.72 255.114 200.464 256.565 200.464C261.28 200.464 263.786 202.299 264.085 205.968C264.149 206.821 264.181 207.792 264.181 208.88V213.68C264.181 214.981 264.288 216.421 264.501 218H258.869L258.485 215.504L257.781 217.296ZM253.973 212.944C253.973 213.456 254.144 213.851 254.485 214.128C254.848 214.405 255.328 214.544 255.925 214.544C256.565 214.544 257.141 214.309 257.653 213.84C258.165 213.371 258.421 212.72 258.421 211.888V210.768C258.229 210.747 257.952 210.736 257.589 210.736C256.48 210.736 255.594 210.928 254.933 211.312C254.293 211.675 253.973 212.219 253.973 212.944ZM275.666 200.464C277.288 200.464 278.717 200.773 279.954 201.392C281.192 202.011 282.141 202.853 282.802 203.92C283.485 204.965 283.858 206.139 283.922 207.44H278.354C278.12 205.392 277.181 204.368 275.538 204.368C274.578 204.368 273.842 204.784 273.33 205.616C272.818 206.427 272.562 207.653 272.562 209.296C272.562 212.795 273.576 214.544 275.602 214.544C276.285 214.544 276.872 214.299 277.362 213.808C277.853 213.317 278.173 212.624 278.322 211.728H283.986C283.666 213.883 282.728 215.547 281.17 216.72C279.613 217.872 277.65 218.448 275.282 218.448C273.64 218.448 272.168 218.107 270.866 217.424C269.565 216.72 268.541 215.707 267.794 214.384C267.048 213.061 266.674 211.483 266.674 209.648C266.674 207.749 267.069 206.107 267.858 204.72C268.648 203.333 269.725 202.277 271.09 201.552C272.456 200.827 273.981 200.464 275.666 200.464ZM292.176 218H286.416V194.48H292.176V208.08L298.192 200.912H304.944L297.712 208.752L305.04 218H297.968L293.392 211.664L292.176 213.008V218ZM324.259 196.048C327.033 196.368 329.283 197.403 331.011 199.152C332.739 200.901 333.603 203.408 333.603 206.672C333.603 208.891 333.187 210.811 332.355 212.432C331.545 214.053 330.425 215.323 328.995 216.24C327.587 217.136 326.009 217.68 324.259 217.872C323.513 217.957 322.574 218 321.443 218H313.091V195.92H321.443C322.574 195.92 323.513 195.963 324.259 196.048ZM320.643 213.52C321.539 213.52 322.233 213.499 322.723 213.456C324.195 213.328 325.369 212.667 326.243 211.472C327.139 210.277 327.587 208.709 327.587 206.768C327.587 204.848 327.15 203.355 326.275 202.288C325.401 201.2 324.217 200.592 322.723 200.464C322.233 200.421 321.539 200.4 320.643 200.4H318.851V213.52H320.643ZM352.964 209.232C352.964 209.765 352.932 210.32 352.868 210.896H340.964C341.092 212.24 341.423 213.189 341.956 213.744C342.511 214.277 343.236 214.544 344.132 214.544C344.943 214.544 345.593 214.352 346.084 213.968C346.575 213.584 346.873 213.061 346.98 212.4H352.644C352.153 214.32 351.151 215.813 349.636 216.88C348.121 217.925 346.265 218.448 344.068 218.448C342.404 218.448 340.9 218.117 339.556 217.456C338.233 216.795 337.188 215.792 336.42 214.448C335.652 213.104 335.268 211.461 335.268 209.52C335.268 207.835 335.631 206.309 336.356 204.944C337.103 203.557 338.159 202.469 339.524 201.68C340.911 200.869 342.532 200.464 344.388 200.464C346.201 200.464 347.748 200.88 349.028 201.712C350.329 202.523 351.311 203.6 351.972 204.944C352.633 206.288 352.964 207.717 352.964 209.232ZM346.948 207.376C346.628 205.371 345.679 204.368 344.1 204.368C342.5 204.368 341.519 205.371 341.156 207.376H346.948ZM360.471 218L353.719 200.912H360.119L363.639 213.424L367.127 200.912H373.431L366.679 218H360.471ZM390.808 209.232C390.808 209.765 390.776 210.32 390.712 210.896H378.808C378.936 212.24 379.266 213.189 379.8 213.744C380.354 214.277 381.08 214.544 381.976 214.544C382.786 214.544 383.437 214.352 383.928 213.968C384.418 213.584 384.717 213.061 384.824 212.4H390.488C389.997 214.32 388.994 215.813 387.48 216.88C385.965 217.925 384.109 218.448 381.912 218.448C380.248 218.448 378.744 218.117 377.4 217.456C376.077 216.795 375.032 215.792 374.264 214.448C373.496 213.104 373.112 211.461 373.112 209.52C373.112 207.835 373.474 206.309 374.2 204.944C374.946 203.557 376.002 202.469 377.368 201.68C378.754 200.869 380.376 200.464 382.232 200.464C384.045 200.464 385.592 200.88 386.872 201.712C388.173 202.523 389.154 203.6 389.816 204.944C390.477 206.288 390.808 207.717 390.808 209.232ZM384.792 207.376C384.472 205.371 383.522 204.368 381.944 204.368C380.344 204.368 379.362 205.371 379 207.376H384.792ZM398.923 211.856C398.923 212.624 398.944 213.147 398.987 213.424C399.029 213.765 399.168 214 399.403 214.128C399.659 214.235 400.149 214.277 400.875 214.256V218.16C399.701 218.267 398.581 218.32 397.515 218.32C394.784 218.32 393.355 217.211 393.227 214.992C393.184 214.395 393.163 213.381 393.163 211.952V194.48H398.923V211.856ZM411.265 200.464C413.121 200.464 414.742 200.837 416.129 201.584C417.515 202.309 418.582 203.355 419.329 204.72C420.075 206.064 420.449 207.643 420.449 209.456C420.449 211.269 420.075 212.859 419.329 214.224C418.582 215.568 417.515 216.613 416.129 217.36C414.742 218.085 413.121 218.448 411.265 218.448C409.409 218.448 407.787 218.085 406.401 217.36C405.014 216.613 403.947 215.568 403.201 214.224C402.454 212.859 402.081 211.269 402.081 209.456C402.081 207.643 402.454 206.064 403.201 204.72C403.947 203.355 405.014 202.309 406.401 201.584C407.787 200.837 409.409 200.464 411.265 200.464ZM407.969 209.456C407.969 211.12 408.257 212.389 408.833 213.264C409.409 214.117 410.219 214.544 411.265 214.544C412.31 214.544 413.121 214.117 413.697 213.264C414.273 212.389 414.561 211.12 414.561 209.456C414.561 207.771 414.273 206.501 413.697 205.648C413.121 204.795 412.31 204.368 411.265 204.368C410.219 204.368 409.409 204.795 408.833 205.648C408.257 206.501 407.969 207.771 407.969 209.456ZM434.339 200.464C435.853 200.464 437.176 200.827 438.307 201.552C439.459 202.277 440.333 203.291 440.931 204.592C441.549 205.893 441.859 207.387 441.859 209.072C441.859 211.035 441.496 212.72 440.771 214.128C440.045 215.536 439.064 216.613 437.827 217.36C436.611 218.085 435.256 218.448 433.763 218.448C433.037 218.448 432.301 218.373 431.555 218.224C430.829 218.075 430.253 217.872 429.827 217.616L428.707 215.792V224.272H422.947V200.912H428.707V203.408L429.987 201.52C430.456 201.179 431.075 200.923 431.843 200.752C432.611 200.56 433.443 200.464 434.339 200.464ZM428.707 209.968C428.707 211.547 429.037 212.709 429.699 213.456C430.381 214.181 431.213 214.544 432.195 214.544C433.347 214.544 434.264 214.107 434.947 213.232C435.629 212.336 435.971 211.045 435.971 209.36C435.971 207.803 435.629 206.587 434.947 205.712C434.264 204.816 433.4 204.368 432.355 204.368C431.224 204.368 430.328 204.752 429.667 205.52C429.027 206.288 428.707 207.525 428.707 209.232V209.968ZM461.089 209.232C461.089 209.765 461.057 210.32 460.993 210.896H449.089C449.217 212.24 449.548 213.189 450.081 213.744C450.636 214.277 451.361 214.544 452.257 214.544C453.068 214.544 453.718 214.352 454.209 213.968C454.7 213.584 454.998 213.061 455.105 212.4H460.769C460.278 214.32 459.276 215.813 457.761 216.88C456.246 217.925 454.39 218.448 452.193 218.448C450.529 218.448 449.025 218.117 447.681 217.456C446.358 216.795 445.313 215.792 444.545 214.448C443.777 213.104 443.393 211.461 443.393 209.52C443.393 207.835 443.756 206.309 444.481 204.944C445.228 203.557 446.284 202.469 447.649 201.68C449.036 200.869 450.657 200.464 452.513 200.464C454.326 200.464 455.873 200.88 457.153 201.712C458.454 202.523 459.436 203.6 460.097 204.944C460.758 206.288 461.089 207.717 461.089 209.232ZM455.073 207.376C454.753 205.371 453.804 204.368 452.225 204.368C450.625 204.368 449.644 205.371 449.281 207.376H455.073ZM473.908 200.464C474.377 200.464 474.814 200.496 475.22 200.56V205.264C475.006 205.243 474.697 205.232 474.292 205.232C473.076 205.232 472.105 205.445 471.38 205.872C470.654 206.299 470.132 206.981 469.812 207.92C469.492 208.859 469.332 210.128 469.332 211.728V218H463.572V200.912H469.332V204.368L470.548 201.968C470.996 201.477 471.518 201.104 472.116 200.848C472.734 200.592 473.332 200.464 473.908 200.464Z" fill="url(#paint1_linear_1_2)"/>
<path d="M533.76 208.304C533.76 209.499 533.728 210.533 533.664 211.408C533.515 213.456 532.651 215.141 531.072 216.464C529.515 217.787 527.147 218.448 523.968 218.448C520.789 218.448 518.411 217.787 516.832 216.464C515.275 215.141 514.421 213.456 514.272 211.408C514.208 210.533 514.176 209.499 514.176 208.304V195.92H519.936V209.36C519.936 209.979 519.947 210.416 519.968 210.672C520.139 213.04 521.472 214.224 523.968 214.224C526.464 214.224 527.797 213.04 527.968 210.672C527.989 210.416 528 209.979 528 209.36V195.92H533.76V208.304ZM537.529 195.92H543.289V218H537.529V195.92ZM552.903 194.96H556.263L548.231 218.96H544.871L552.903 194.96ZM577.854 208.304C577.854 209.499 577.822 210.533 577.758 211.408C577.608 213.456 576.744 215.141 575.166 216.464C573.608 217.787 571.24 218.448 568.062 218.448C564.883 218.448 562.504 217.787 560.926 216.464C559.368 215.141 558.515 213.456 558.366 211.408C558.302 210.533 558.27 209.499 558.27 208.304V195.92H564.03V209.36C564.03 209.979 564.04 210.416 564.062 210.672C564.232 213.04 565.566 214.224 568.062 214.224C570.558 214.224 571.891 213.04 572.062 210.672C572.083 210.416 572.094 209.979 572.094 209.36V195.92H577.854V208.304ZM586.455 218H579.511L587.415 206.864L580.055 195.92H586.775L590.935 203.28L595.415 195.92H602.039L594.327 206.768L602.103 218H595.383L590.743 210.544L586.455 218ZM632.603 196.048C635.376 196.368 637.627 197.403 639.355 199.152C641.083 200.901 641.947 203.408 641.947 206.672C641.947 208.891 641.531 210.811 640.699 212.432C639.888 214.053 638.768 215.323 637.339 216.24C635.931 217.136 634.352 217.68 632.603 217.872C631.856 217.957 630.918 218 629.787 218H621.435V195.92H629.787C630.918 195.92 631.856 195.963 632.603 196.048ZM628.987 213.52C629.883 213.52 630.576 213.499 631.067 213.456C632.539 213.328 633.712 212.667 634.587 211.472C635.483 210.277 635.931 208.709 635.931 206.768C635.931 204.848 635.494 203.355 634.619 202.288C633.744 201.2 632.56 200.592 631.067 200.464C630.576 200.421 629.883 200.4 628.987 200.4H627.195V213.52H628.987ZM661.308 209.232C661.308 209.765 661.276 210.32 661.212 210.896H649.308C649.436 212.24 649.766 213.189 650.3 213.744C650.854 214.277 651.58 214.544 652.476 214.544C653.286 214.544 653.937 214.352 654.428 213.968C654.918 213.584 655.217 213.061 655.324 212.4H660.988C660.497 214.32 659.494 215.813 657.98 216.88C656.465 217.925 654.609 218.448 652.412 218.448C650.748 218.448 649.244 218.117 647.9 217.456C646.577 216.795 645.532 215.792 644.764 214.448C643.996 213.104 643.612 211.461 643.612 209.52C643.612 207.835 643.974 206.309 644.7 204.944C645.446 203.557 646.502 202.469 647.868 201.68C649.254 200.869 650.876 200.464 652.732 200.464C654.545 200.464 656.092 200.88 657.372 201.712C658.673 202.523 659.654 203.6 660.316 204.944C660.977 206.288 661.308 207.717 661.308 209.232ZM655.292 207.376C654.972 205.371 654.022 204.368 652.444 204.368C650.844 204.368 649.862 205.371 649.5 207.376H655.292ZM670.831 200.464C672.879 200.464 674.521 200.965 675.759 201.968C677.017 202.971 677.764 204.283 677.999 205.904H672.335C672.057 204.667 671.439 204.048 670.479 204.048C670.073 204.048 669.743 204.165 669.487 204.4C669.231 204.635 669.103 204.933 669.103 205.296C669.103 205.808 669.38 206.245 669.935 206.608C670.511 206.949 671.577 207.312 673.135 207.696C674.841 208.123 676.153 208.752 677.071 209.584C677.988 210.395 678.447 211.568 678.447 213.104C678.447 214.853 677.732 216.187 676.303 217.104C674.895 218 673.092 218.448 670.895 218.448C668.527 218.448 666.607 217.957 665.135 216.976C663.684 215.995 662.852 214.565 662.639 212.688H668.303C668.452 213.349 668.761 213.883 669.231 214.288C669.7 214.672 670.244 214.864 670.863 214.864C671.396 214.864 671.833 214.757 672.175 214.544C672.516 214.309 672.687 213.979 672.687 213.552C672.687 213.019 672.377 212.581 671.759 212.24C671.161 211.877 670.095 211.515 668.559 211.152C666.852 210.747 665.551 210.139 664.655 209.328C663.78 208.496 663.343 207.376 663.343 205.968C663.343 204.283 664.015 202.949 665.359 201.968C666.724 200.965 668.548 200.464 670.831 200.464ZM680.697 200.912H686.457V218H680.697V200.912ZM680.665 194.064H686.521V199.696H680.665V194.064ZM707.868 213.648C707.868 215.227 707.857 216.325 707.836 216.944C707.75 219.653 706.844 221.68 705.116 223.024C703.388 224.368 701.02 225.04 698.012 225.04C695.43 225.04 693.393 224.528 691.9 223.504C690.428 222.48 689.585 220.997 689.372 219.056L689.34 218.736H694.908L694.94 219.056C695.004 219.611 695.324 220.037 695.9 220.336C696.497 220.656 697.254 220.816 698.172 220.816C699.302 220.816 700.209 220.549 700.892 220.016C701.574 219.504 701.958 218.693 702.044 217.584C702.086 216.901 702.108 216.155 702.108 215.344V214.864L700.828 216.752C699.868 217.456 698.524 217.808 696.796 217.808C695.26 217.808 693.894 217.477 692.7 216.816C691.526 216.133 690.609 215.173 689.948 213.936C689.286 212.699 688.956 211.248 688.956 209.584C688.956 207.621 689.318 205.957 690.044 204.592C690.769 203.227 691.74 202.203 692.956 201.52C694.193 200.816 695.558 200.464 697.052 200.464C697.777 200.464 698.502 200.539 699.228 200.688C699.974 200.837 700.561 201.04 700.988 201.296L702.108 203.12V200.912H707.868V213.648ZM694.844 209.168C694.844 210.704 695.174 211.877 695.836 212.688C696.518 213.499 697.393 213.904 698.46 213.904C699.59 213.904 700.476 213.52 701.116 212.752C701.777 211.984 702.108 210.747 702.108 209.04V208.944C702.108 207.365 701.766 206.213 701.084 205.488C700.422 204.741 699.601 204.368 698.62 204.368C696.102 204.368 694.844 205.968 694.844 209.168ZM728.506 205.104C728.612 205.829 728.666 206.907 728.666 208.336V218H722.906V209.296C722.906 208.315 722.884 207.536 722.842 206.96C722.778 206.128 722.511 205.488 722.042 205.04C721.594 204.592 720.943 204.368 720.09 204.368C719.172 204.368 718.436 204.837 717.882 205.776C717.348 206.693 717.082 208.08 717.082 209.936V218H711.322V200.912H717.082V203.568L718.618 201.456C719.706 200.795 720.986 200.464 722.458 200.464C724.207 200.464 725.594 200.869 726.618 201.68C727.642 202.469 728.271 203.611 728.506 205.104ZM748.652 209.232C748.652 209.765 748.62 210.32 748.556 210.896H736.652C736.78 212.24 737.11 213.189 737.644 213.744C738.198 214.277 738.924 214.544 739.82 214.544C740.63 214.544 741.281 214.352 741.772 213.968C742.262 213.584 742.561 213.061 742.668 212.4H748.332C747.841 214.32 746.838 215.813 745.324 216.88C743.809 217.925 741.953 218.448 739.756 218.448C738.092 218.448 736.588 218.117 735.244 217.456C733.921 216.795 732.876 215.792 732.108 214.448C731.34 213.104 730.956 211.461 730.956 209.52C730.956 207.835 731.318 206.309 732.044 204.944C732.79 203.557 733.846 202.469 735.212 201.68C736.598 200.869 738.22 200.464 740.076 200.464C741.889 200.464 743.436 200.88 744.716 201.712C746.017 202.523 746.998 203.6 747.66 204.944C748.321 206.288 748.652 207.717 748.652 209.232ZM742.636 207.376C742.316 205.371 741.366 204.368 739.788 204.368C738.188 204.368 737.206 205.371 736.844 207.376H742.636ZM761.47 200.464C761.94 200.464 762.377 200.496 762.782 200.56V205.264C762.569 205.243 762.26 205.232 761.854 205.232C760.638 205.232 759.668 205.445 758.942 205.872C758.217 206.299 757.694 206.981 757.374 207.92C757.054 208.859 756.894 210.128 756.894 211.728V218H751.134V200.912H756.894V204.368L758.11 201.968C758.558 201.477 759.081 201.104 759.678 200.848C760.297 200.592 760.894 200.464 761.47 200.464Z" fill="url(#paint2_linear_1_2)"/>
</g>
<defs>
<filter id="filter0_f_1_2" x="-1652" y="-1171" width="3160" height="3160" filterUnits="userSpaceOnUse" color-interpolation-filters="sRGB">
<feFlood flood-opacity="0" result="BackgroundImageFix"/>
<feBlend mode="normal" in="SourceGraphic" in2="BackgroundImageFix" result="shape"/>
<feGaussianBlur stdDeviation="615" result="effect1_foregroundBlur_1_2"/>
</filter>
<linearGradient id="paint0_linear_1_2" x1="82" y1="184" x2="829.183" y2="95.5437" gradientUnits="userSpaceOnUse">
<stop stop-color="#A2CEDC"/>
<stop offset="1" stop-color="#4F5D61"/>
</linearGradient>
<linearGradient id="paint1_linear_1_2" x1="149" y1="229" x2="477.139" y2="194.989" gradientUnits="userSpaceOnUse">
<stop stop-color="#897ECE"/>
<stop offset="1" stop-color="#5A6750"/>
</linearGradient>
<linearGradient id="paint2_linear_1_2" x1="512" y1="229" x2="764.979" y2="208.873" gradientUnits="userSpaceOnUse">
<stop stop-color="#B38B9C"/>
<stop offset="1" stop-color="#2B4749"/>
</linearGradient>
<clipPath id="clip0_1_2">
<rect width="912" height="322" fill="white"/>
</clipPath>
</defs>
</svg>
