<svg width="920" height="330" viewBox="0 0 920 330" fill="none" xmlns="http://www.w3.org/2000/svg">
<rect x="2" y="2" width="916" height="326" fill="black"/>
<rect x="2" y="2" width="916" height="326" fill="url(#paint0_radial_35_2)"/>
<rect x="2" y="2" width="916" height="326" stroke="url(#paint1_linear_35_2)" stroke-width="4"/>
<path d="M113.042 127.6C116.715 127.6 120.002 128.219 122.902 129.456C125.802 130.693 128.257 132.375 130.268 134.502C132.279 136.59 133.806 139.065 134.85 141.926C135.933 144.749 136.474 147.784 136.474 151.032C136.474 154.551 135.894 157.76 134.734 160.66C133.574 163.521 131.95 165.977 129.862 168.026C127.813 170.075 125.357 171.661 122.496 172.782C119.635 173.903 116.483 174.464 113.042 174.464C109.175 174.464 105.773 173.845 102.834 172.608C99.934 171.371 97.498 169.708 95.526 167.62C93.554 165.493 92.0653 163.019 91.06 160.196C90.0933 157.335 89.61 154.28 89.61 151.032C89.61 147.784 90.1513 144.749 91.234 141.926C92.3167 139.065 93.8633 136.59 95.874 134.502C97.9233 132.375 100.398 130.693 103.298 129.456C106.198 128.219 109.446 127.6 113.042 127.6ZM113.042 165.416C114.821 165.416 116.425 165.068 117.856 164.372C119.287 163.676 120.485 162.709 121.452 161.472C122.419 160.196 123.153 158.669 123.656 156.89C124.197 155.111 124.468 153.139 124.468 150.974C124.468 148.963 124.236 147.088 123.772 145.348C123.347 143.608 122.67 142.081 121.742 140.766C120.814 139.451 119.635 138.427 118.204 137.692C116.773 136.919 115.053 136.532 113.042 136.532C111.031 136.532 109.291 136.919 107.822 137.692C106.391 138.465 105.212 139.509 104.284 140.824C103.356 142.1 102.66 143.627 102.196 145.406C101.771 147.146 101.558 149.002 101.558 150.974C101.558 152.946 101.79 154.821 102.254 156.6C102.718 158.34 103.414 159.867 104.342 161.182C105.27 162.497 106.449 163.541 107.88 164.314C109.349 165.049 111.07 165.416 113.042 165.416ZM165.632 148.48C165.361 148.441 164.897 148.422 164.24 148.422C163.582 148.383 162.848 148.403 162.036 148.48C161.224 148.519 160.354 148.635 159.426 148.828C158.536 148.983 157.724 149.234 156.99 149.582C155.791 150.162 154.824 150.819 154.09 151.554C153.355 152.289 152.833 152.869 152.524 153.294V174H141.562V139.548H152.234V146.45C152.427 145.909 152.814 145.116 153.394 144.072C154.012 142.989 154.979 141.984 156.294 141.056C157.299 140.321 158.304 139.819 159.31 139.548C160.354 139.277 161.301 139.142 162.152 139.142C163.041 139.103 163.795 139.142 164.414 139.258C165.032 139.374 165.438 139.451 165.632 139.49V148.48ZM180.297 125.396V134.85H167.769V125.396H180.297ZM179.543 174H168.581V139.548H179.543V174ZM200.122 139.142C203.022 139.142 205.535 139.606 207.662 140.534C209.827 141.462 211.625 142.719 213.056 144.304C214.486 145.889 215.55 147.765 216.246 149.93C216.98 152.057 217.348 154.357 217.348 156.832C217.348 159.307 217 161.627 216.304 163.792C215.608 165.919 214.544 167.775 213.114 169.36C211.683 170.945 209.866 172.202 207.662 173.13C205.496 174.019 202.925 174.464 199.948 174.464C197.55 174.464 195.288 174.077 193.162 173.304C191.074 172.492 189.237 171.332 187.652 169.824C186.105 168.316 184.868 166.479 183.94 164.314C183.05 162.11 182.606 159.616 182.606 156.832C182.606 154.203 183.05 151.805 183.94 149.64C184.868 147.436 186.105 145.561 187.652 144.014C189.237 142.467 191.093 141.269 193.22 140.418C195.346 139.567 197.647 139.142 200.122 139.142ZM199.832 166.112C202.268 166.112 204.104 165.261 205.342 163.56C206.579 161.859 207.198 159.597 207.198 156.774C207.198 155.459 207.062 154.241 206.792 153.12C206.521 151.999 206.096 151.013 205.516 150.162C204.936 149.311 204.182 148.654 203.254 148.19C202.326 147.687 201.204 147.436 199.89 147.436C197.531 147.436 195.752 148.267 194.554 149.93C193.355 151.593 192.756 153.874 192.756 156.774C192.756 159.713 193.355 162.013 194.554 163.676C195.752 165.3 197.512 166.112 199.832 166.112ZM255.053 174H244.207V154.338C244.245 153.565 244.168 152.791 243.975 152.018C243.781 151.245 243.453 150.549 242.989 149.93C242.525 149.311 241.925 148.809 241.191 148.422C240.456 148.035 239.567 147.842 238.523 147.842C236.899 147.842 235.468 148.364 234.231 149.408C233.032 150.452 232.433 151.96 232.433 153.932V174H221.413V139.548H232.433L232.375 145.522C232.723 144.594 233.206 143.743 233.825 142.97C234.482 142.158 235.255 141.481 236.145 140.94C237.034 140.36 238.02 139.915 239.103 139.606C240.224 139.258 241.403 139.084 242.641 139.084C244.265 139.084 245.831 139.355 247.339 139.896C248.847 140.437 250.161 141.23 251.283 142.274C252.443 143.318 253.351 144.633 254.009 146.218C254.705 147.765 255.053 149.582 255.053 151.67V174ZM322.219 156.658C321.716 159.21 320.904 161.588 319.783 163.792C318.661 165.957 317.192 167.833 315.375 169.418C313.557 171.003 311.353 172.241 308.763 173.13C306.211 174.019 303.214 174.464 299.773 174.464C296.679 174.464 293.741 173.981 290.957 173.014C288.211 172.009 285.795 170.539 283.707 168.606C281.619 166.634 279.956 164.198 278.719 161.298C277.52 158.398 276.921 155.034 276.921 151.206C276.921 147.958 277.443 144.923 278.487 142.1C279.569 139.239 281.116 136.764 283.127 134.676C285.137 132.549 287.554 130.867 290.377 129.63C293.238 128.393 296.467 127.774 300.063 127.774C303.117 127.774 305.901 128.199 308.415 129.05C310.967 129.862 313.171 131.022 315.027 132.53C316.921 134.038 318.468 135.875 319.667 138.04C320.904 140.205 321.735 142.622 322.161 145.29L311.953 146.45C311.643 145.058 311.199 143.763 310.619 142.564C310.039 141.365 309.304 140.341 308.415 139.49C307.525 138.601 306.443 137.924 305.167 137.46C303.929 136.957 302.499 136.706 300.875 136.706C298.632 136.706 296.776 137.17 295.307 138.098C293.876 138.987 292.735 140.128 291.885 141.52C291.034 142.912 290.435 144.459 290.087 146.16C289.777 147.861 289.623 149.505 289.623 151.09C289.623 155.653 290.628 159.191 292.639 161.704C294.649 164.179 297.356 165.416 300.759 165.416C303.736 165.416 306.133 164.604 307.951 162.98C309.807 161.317 311.121 158.959 311.895 155.904L322.219 156.658ZM360.117 174H349.329V154.744C349.329 153.971 349.232 153.197 349.039 152.424C348.846 151.651 348.517 150.974 348.053 150.394C347.628 149.775 347.048 149.273 346.313 148.886C345.617 148.499 344.728 148.306 343.645 148.306C342.833 148.306 342.06 148.441 341.325 148.712C340.629 148.983 339.991 149.389 339.411 149.93C338.87 150.433 338.425 151.071 338.077 151.844C337.768 152.579 337.613 153.429 337.613 154.396V174H326.651V127.89H337.613V145.986C337.768 145.097 338.154 144.246 338.773 143.434C339.392 142.583 340.165 141.849 341.093 141.23C342.021 140.573 343.065 140.07 344.225 139.722C345.385 139.335 346.584 139.142 347.821 139.142C349.445 139.142 350.992 139.432 352.461 140.012C353.969 140.592 355.284 141.443 356.405 142.564C357.526 143.647 358.416 145 359.073 146.624C359.769 148.209 360.117 150.027 360.117 152.076V174ZM390.042 148.48C389.771 148.441 389.307 148.422 388.65 148.422C387.993 148.383 387.258 148.403 386.446 148.48C385.634 148.519 384.764 148.635 383.836 148.828C382.947 148.983 382.135 149.234 381.4 149.582C380.201 150.162 379.235 150.819 378.5 151.554C377.765 152.289 377.243 152.869 376.934 153.294V174H365.972V139.548H376.644V146.45C376.837 145.909 377.224 145.116 377.804 144.072C378.423 142.989 379.389 141.984 380.704 141.056C381.709 140.321 382.715 139.819 383.72 139.548C384.764 139.277 385.711 139.142 386.562 139.142C387.451 139.103 388.205 139.142 388.824 139.258C389.443 139.374 389.849 139.451 390.042 139.49V148.48ZM404.707 125.396V134.85H392.179V125.396H404.707ZM403.953 174H392.991V139.548H403.953V174ZM439.315 162.632C439.315 164.681 438.89 166.46 438.039 167.968C437.188 169.437 436.048 170.655 434.617 171.622C433.186 172.589 431.504 173.304 429.571 173.768C427.638 174.232 425.608 174.464 423.481 174.464C421.045 174.464 418.822 174.155 416.811 173.536C414.8 172.879 413.08 172.028 411.649 170.984C410.257 169.901 409.155 168.683 408.343 167.33C407.57 165.977 407.183 164.604 407.183 163.212L416.405 162.11C416.405 163.077 416.656 163.869 417.159 164.488C417.7 165.068 418.338 165.532 419.073 165.88C419.846 166.189 420.639 166.402 421.451 166.518C422.263 166.634 422.959 166.692 423.539 166.692C424.042 166.692 424.602 166.653 425.221 166.576C425.878 166.499 426.478 166.363 427.019 166.17C427.599 165.977 428.082 165.687 428.469 165.3C428.856 164.913 429.049 164.43 429.049 163.85C429.049 162.961 428.527 162.265 427.483 161.762C426.439 161.259 425.144 160.834 423.597 160.486C422.05 160.099 420.349 159.713 418.493 159.326C416.676 158.939 414.994 158.398 413.447 157.702C411.9 156.967 410.605 156.001 409.561 154.802C408.517 153.603 407.995 152.037 407.995 150.104C407.995 148.828 408.227 147.552 408.691 146.276C409.194 144.961 410.025 143.782 411.185 142.738C412.345 141.655 413.892 140.785 415.825 140.128C417.758 139.432 420.175 139.084 423.075 139.084C425.743 139.084 428.044 139.413 429.977 140.07C431.91 140.689 433.496 141.501 434.733 142.506C436.009 143.511 436.937 144.613 437.517 145.812C438.097 147.011 438.387 148.19 438.387 149.35L429.107 150.51C429.107 150.355 429.049 150.065 428.933 149.64C428.817 149.176 428.546 148.712 428.121 148.248C427.696 147.745 427.058 147.32 426.207 146.972C425.395 146.585 424.274 146.392 422.843 146.392C421.335 146.392 420.194 146.624 419.421 147.088C418.648 147.513 418.261 148.035 418.261 148.654C418.261 149.543 418.783 150.22 419.827 150.684C420.871 151.148 422.166 151.573 423.713 151.96C425.26 152.347 426.942 152.753 428.759 153.178C430.615 153.603 432.316 154.183 433.863 154.918C435.41 155.653 436.705 156.639 437.749 157.876C438.793 159.075 439.315 160.66 439.315 162.632ZM441.603 147.668V141.114C443.498 141.191 445.006 140.708 446.127 139.664C447.248 138.62 448.118 137.441 448.737 136.126C449.433 134.579 449.936 132.839 450.245 130.906H456.973V139.548H465.789V147.668H456.973V162.748C456.973 163.328 457.089 163.831 457.321 164.256C457.514 164.643 457.843 164.991 458.307 165.3C458.81 165.571 459.544 165.706 460.511 165.706C461.323 165.706 462.058 165.648 462.715 165.532C463.411 165.416 464.01 165.261 464.513 165.068C465.093 164.875 465.634 164.643 466.137 164.372V171.448C465.402 172.221 464.474 172.821 463.353 173.246C462.27 173.633 461.207 173.923 460.163 174.116C458.926 174.309 457.669 174.425 456.393 174.464C455.04 174.464 453.841 174.329 452.797 174.058C451.792 173.787 450.902 173.439 450.129 173.014C449.394 172.55 448.776 172.028 448.273 171.448C447.809 170.868 447.422 170.269 447.113 169.65C446.417 168.258 446.05 166.653 446.011 164.836V147.668H441.603ZM485.704 139.142C488.604 139.142 491.117 139.606 493.244 140.534C495.409 141.462 497.207 142.719 498.638 144.304C500.068 145.889 501.132 147.765 501.828 149.93C502.562 152.057 502.93 154.357 502.93 156.832C502.93 159.307 502.582 161.627 501.886 163.792C501.19 165.919 500.126 167.775 498.696 169.36C497.265 170.945 495.448 172.202 493.244 173.13C491.078 174.019 488.507 174.464 485.53 174.464C483.132 174.464 480.87 174.077 478.744 173.304C476.656 172.492 474.819 171.332 473.234 169.824C471.687 168.316 470.45 166.479 469.522 164.314C468.632 162.11 468.188 159.616 468.188 156.832C468.188 154.203 468.632 151.805 469.522 149.64C470.45 147.436 471.687 145.561 473.234 144.014C474.819 142.467 476.675 141.269 478.802 140.418C480.928 139.567 483.229 139.142 485.704 139.142ZM485.414 166.112C487.85 166.112 489.686 165.261 490.924 163.56C492.161 161.859 492.78 159.597 492.78 156.774C492.78 155.459 492.644 154.241 492.374 153.12C492.103 151.999 491.678 151.013 491.098 150.162C490.518 149.311 489.764 148.654 488.836 148.19C487.908 147.687 486.786 147.436 485.472 147.436C483.113 147.436 481.334 148.267 480.136 149.93C478.937 151.593 478.338 153.874 478.338 156.774C478.338 159.713 478.937 162.013 480.136 163.676C481.334 165.3 483.094 166.112 485.414 166.112ZM530.192 139.084C532.512 139.084 534.581 139.548 536.398 140.476C538.254 141.404 539.801 142.68 541.038 144.304C542.275 145.889 543.223 147.765 543.88 149.93C544.537 152.057 544.866 154.338 544.866 156.774C544.866 159.21 544.537 161.511 543.88 163.676C543.223 165.803 542.275 167.678 541.038 169.302C539.801 170.887 538.254 172.144 536.398 173.072C534.581 174 532.512 174.464 530.192 174.464C527.601 174.464 525.301 173.865 523.29 172.666C521.318 171.429 519.791 169.747 518.708 167.62V185.89H507.688V139.548H518.708V145.464C519.713 143.569 521.202 142.042 523.174 140.882C525.185 139.683 527.524 139.084 530.192 139.084ZM526.248 165.532C527.447 165.532 528.529 165.3 529.496 164.836C530.463 164.333 531.255 163.676 531.874 162.864C532.531 162.013 533.034 161.027 533.382 159.906C533.73 158.785 533.904 157.586 533.904 156.31C533.904 155.034 533.73 153.835 533.382 152.714C533.034 151.593 532.531 150.626 531.874 149.814C531.255 148.963 530.463 148.306 529.496 147.842C528.529 147.339 527.447 147.088 526.248 147.088C524.972 147.088 523.87 147.32 522.942 147.784C522.014 148.248 521.241 148.886 520.622 149.698C520.003 150.51 519.539 151.477 519.23 152.598C518.921 153.681 518.766 154.86 518.766 156.136V156.31V156.426C518.766 157.702 518.94 158.901 519.288 160.022C519.636 161.105 520.119 162.052 520.738 162.864C521.395 163.676 522.188 164.333 523.116 164.836C524.044 165.3 525.088 165.532 526.248 165.532ZM518.708 156.136V156.426V156.31V156.136ZM582.205 174H571.417V154.744C571.417 153.971 571.32 153.197 571.127 152.424C570.934 151.651 570.605 150.974 570.141 150.394C569.716 149.775 569.136 149.273 568.401 148.886C567.705 148.499 566.816 148.306 565.733 148.306C564.921 148.306 564.148 148.441 563.413 148.712C562.717 148.983 562.079 149.389 561.499 149.93C560.958 150.433 560.513 151.071 560.165 151.844C559.856 152.579 559.701 153.429 559.701 154.396V174H548.739V127.89H559.701V145.986C559.856 145.097 560.242 144.246 560.861 143.434C561.48 142.583 562.253 141.849 563.181 141.23C564.109 140.573 565.153 140.07 566.313 139.722C567.473 139.335 568.672 139.142 569.909 139.142C571.533 139.142 573.08 139.432 574.549 140.012C576.057 140.592 577.372 141.443 578.493 142.564C579.614 143.647 580.504 145 581.161 146.624C581.857 148.209 582.205 150.027 582.205 152.076V174ZM596.736 158.456C596.968 160.892 597.683 162.767 598.882 164.082C600.08 165.397 601.704 166.054 603.754 166.054C605.803 166.054 607.35 165.629 608.394 164.778C609.476 163.927 610.153 162.903 610.424 161.704L619.588 162.864C619.124 164.565 618.447 166.131 617.558 167.562C616.668 168.993 615.528 170.23 614.136 171.274C612.782 172.279 611.178 173.072 609.322 173.652C607.504 174.193 605.436 174.464 603.116 174.464C600.718 174.464 598.456 174.058 596.33 173.246C594.242 172.434 592.405 171.274 590.82 169.766C589.273 168.258 588.036 166.421 587.108 164.256C586.218 162.052 585.774 159.577 585.774 156.832C585.774 154.164 586.218 151.747 587.108 149.582C588.036 147.417 589.273 145.561 590.82 144.014C592.405 142.429 594.261 141.211 596.388 140.36C598.514 139.509 600.815 139.084 603.29 139.084C606.19 139.084 608.703 139.548 610.83 140.476C612.995 141.404 614.793 142.661 616.224 144.246C617.654 145.831 618.718 147.707 619.414 149.872C620.148 152.037 620.516 154.338 620.516 156.774C620.516 157.083 620.496 157.373 620.458 157.644C620.458 157.915 620.458 158.185 620.458 158.456H596.736ZM603.812 147.378C602.072 147.378 600.66 147.842 599.578 148.77C598.495 149.659 597.702 150.935 597.2 152.598H610.54C610.076 151.013 609.302 149.756 608.22 148.828C607.137 147.861 605.668 147.378 603.812 147.378ZM648.776 148.48C648.506 148.441 648.042 148.422 647.384 148.422C646.727 148.383 645.992 148.403 645.18 148.48C644.368 148.519 643.498 148.635 642.57 148.828C641.681 148.983 640.869 149.234 640.134 149.582C638.936 150.162 637.969 150.819 637.234 151.554C636.5 152.289 635.978 152.869 635.668 153.294V174H624.706V139.548H635.378V146.45C635.572 145.909 635.958 145.116 636.538 144.072C637.157 142.989 638.124 141.984 639.438 141.056C640.444 140.321 641.449 139.819 642.454 139.548C643.498 139.277 644.446 139.142 645.296 139.142C646.186 139.103 646.94 139.142 647.558 139.258C648.177 139.374 648.583 139.451 648.776 139.49V148.48ZM710.752 174H697.354L687.552 159.094H680.882V174H668.76V127.89H691.09C693.604 127.89 695.885 128.296 697.934 129.108C700.022 129.92 701.801 131.022 703.27 132.414C704.74 133.806 705.861 135.449 706.634 137.344C707.446 139.239 707.852 141.288 707.852 143.492C707.852 146.624 707.002 149.447 705.3 151.96C703.638 154.435 701.414 156.31 698.63 157.586L710.752 174ZM680.882 150.974H689.872C690.8 150.974 691.632 150.742 692.366 150.278C693.14 149.814 693.797 149.234 694.338 148.538C694.88 147.803 695.286 146.991 695.556 146.102C695.866 145.213 696.02 144.343 696.02 143.492C696.02 142.641 695.846 141.791 695.498 140.94C695.15 140.051 694.667 139.258 694.048 138.562C693.43 137.866 692.714 137.305 691.902 136.88C691.129 136.416 690.298 136.184 689.408 136.184H680.882V150.974ZM726.312 125.396V134.85H713.784V125.396H726.312ZM725.558 174H714.596V139.548H725.558V174ZM756.466 174L747.882 161.356L745.156 164.198V174H734.194V127.89H745.156V152.366L755.654 139.548H768.356L755.306 154.86L768.994 174H756.466ZM778.439 158.456C778.671 160.892 779.386 162.767 780.585 164.082C781.784 165.397 783.408 166.054 785.457 166.054C787.506 166.054 789.053 165.629 790.097 164.778C791.18 163.927 791.856 162.903 792.127 161.704L801.291 162.864C800.827 164.565 800.15 166.131 799.261 167.562C798.372 168.993 797.231 170.23 795.839 171.274C794.486 172.279 792.881 173.072 791.025 173.652C789.208 174.193 787.139 174.464 784.819 174.464C782.422 174.464 780.16 174.058 778.033 173.246C775.945 172.434 774.108 171.274 772.523 169.766C770.976 168.258 769.739 166.421 768.811 164.256C767.922 162.052 767.477 159.577 767.477 156.832C767.477 154.164 767.922 151.747 768.811 149.582C769.739 147.417 770.976 145.561 772.523 144.014C774.108 142.429 775.964 141.211 778.091 140.36C780.218 139.509 782.518 139.084 784.993 139.084C787.893 139.084 790.406 139.548 792.533 140.476C794.698 141.404 796.496 142.661 797.927 144.246C799.358 145.831 800.421 147.707 801.117 149.872C801.852 152.037 802.219 154.338 802.219 156.774C802.219 157.083 802.2 157.373 802.161 157.644C802.161 157.915 802.161 158.185 802.161 158.456H778.439ZM785.515 147.378C783.775 147.378 782.364 147.842 781.281 148.77C780.198 149.659 779.406 150.935 778.903 152.598H792.243C791.779 151.013 791.006 149.756 789.923 148.828C788.84 147.861 787.371 147.378 785.515 147.378ZM830.479 148.48C830.209 148.441 829.745 148.422 829.087 148.422C828.43 148.383 827.695 148.403 826.883 148.48C826.071 148.519 825.201 148.635 824.273 148.828C823.384 148.983 822.572 149.234 821.837 149.582C820.639 150.162 819.672 150.819 818.937 151.554C818.203 152.289 817.681 152.869 817.371 153.294V174H806.409V139.548H817.081V146.45C817.275 145.909 817.661 145.116 818.241 144.072C818.86 142.989 819.827 141.984 821.141 141.056C822.147 140.321 823.152 139.819 824.157 139.548C825.201 139.277 826.149 139.142 826.999 139.142C827.889 139.103 828.643 139.142 829.261 139.258C829.88 139.374 830.286 139.451 830.479 139.49V148.48Z" fill="url(#paint2_linear_35_2)"/>
<path d="M179.208 208.688V213.168H169.32V222H163.56V199.92H180.168V204.4H169.32V208.688H179.208ZM193.68 222V219.12L192.144 221.456C191.056 222.117 189.776 222.448 188.304 222.448C186.618 222.448 185.232 222.043 184.144 221.232C183.077 220.4 182.448 219.365 182.256 218.128C182.149 217.403 182.096 216.325 182.096 214.896V204.912H187.856V213.616C187.856 214.405 187.898 215.184 187.984 215.952C188.09 216.805 188.357 217.456 188.784 217.904C189.232 218.331 189.893 218.544 190.768 218.544C191.664 218.544 192.368 218.171 192.88 217.424C193.413 216.677 193.68 215.728 193.68 214.576V204.912H199.44V222H193.68ZM208.516 215.856C208.516 216.624 208.538 217.147 208.58 217.424C208.623 217.765 208.762 218 208.996 218.128C209.252 218.235 209.743 218.277 210.468 218.256V222.16C209.295 222.267 208.175 222.32 207.108 222.32C204.378 222.32 202.948 221.211 202.82 218.992C202.778 218.395 202.756 217.381 202.756 215.952V198.48H208.516V215.856ZM218.266 215.856C218.266 216.624 218.288 217.147 218.33 217.424C218.373 217.765 218.512 218 218.746 218.128C219.002 218.235 219.493 218.277 220.218 218.256V222.16C219.045 222.267 217.925 222.32 216.858 222.32C214.128 222.32 212.698 221.211 212.57 218.992C212.528 218.395 212.506 217.381 212.506 215.952V198.48H218.266V215.856ZM236.585 199.472C239.337 199.472 241.417 200.133 242.825 201.456C244.233 202.757 245.065 204.517 245.321 206.736H239.561C239.433 205.776 239.113 205.029 238.601 204.496C238.089 203.963 237.375 203.696 236.457 203.696C235.775 203.696 235.231 203.867 234.825 204.208C234.441 204.528 234.249 205.019 234.249 205.68C234.249 206.405 234.58 207.003 235.241 207.472C235.924 207.941 237.151 208.389 238.921 208.816C241.289 209.371 243.017 210.235 244.105 211.408C245.215 212.581 245.769 214.043 245.769 215.792C245.769 217.2 245.364 218.405 244.553 219.408C243.764 220.411 242.708 221.168 241.385 221.68C240.063 222.192 238.633 222.448 237.097 222.448C234.196 222.448 231.892 221.851 230.185 220.656C228.479 219.461 227.54 217.659 227.369 215.248H233.129C233.321 216.229 233.769 216.976 234.473 217.488C235.177 217.979 235.999 218.224 236.937 218.224C237.748 218.224 238.42 218.032 238.953 217.648C239.487 217.264 239.753 216.773 239.753 216.176C239.753 215.557 239.476 215.013 238.921 214.544C238.388 214.075 237.481 213.68 236.201 213.36C234.367 212.912 232.884 212.411 231.753 211.856C230.623 211.28 229.748 210.544 229.129 209.648C228.532 208.731 228.233 207.557 228.233 206.128C228.233 204.763 228.617 203.579 229.385 202.576C230.153 201.573 231.167 200.805 232.425 200.272C233.705 199.739 235.092 199.472 236.585 199.472ZM254.953 214.928C254.953 215.739 254.963 216.293 254.985 216.592C255.027 217.189 255.145 217.637 255.337 217.936C255.529 218.213 255.849 218.405 256.297 218.512C256.745 218.597 257.438 218.619 258.377 218.576V222.16C257.267 222.352 256.137 222.448 254.985 222.448C252.937 222.448 251.497 222.139 250.665 221.52C249.833 220.88 249.363 219.877 249.257 218.512C249.214 217.851 249.193 216.933 249.193 215.76V208.624H246.473V205.04H249.193V200.624H254.953V205.04H258.729V208.624H254.953V214.928ZM269.781 221.296C268.565 222.064 267.157 222.448 265.557 222.448C264.597 222.448 263.701 222.256 262.869 221.872C262.037 221.467 261.365 220.88 260.853 220.112C260.341 219.344 260.085 218.437 260.085 217.392C260.085 215.557 260.906 214.117 262.549 213.072C264.192 212.027 266.453 211.504 269.333 211.504H270.421V211.248C270.421 210.779 270.4 210.363 270.357 210C270.314 209.531 270.112 209.147 269.749 208.848C269.386 208.528 268.906 208.368 268.309 208.368C267.648 208.368 267.125 208.571 266.741 208.976C266.357 209.381 266.144 209.957 266.101 210.704L260.661 210.736C260.661 209.435 261.013 208.315 261.717 207.376C262.421 206.437 263.37 205.723 264.565 205.232C265.781 204.72 267.114 204.464 268.565 204.464C273.28 204.464 275.786 206.299 276.085 209.968C276.149 210.821 276.181 211.792 276.181 212.88V217.68C276.181 218.981 276.288 220.421 276.501 222H270.869L270.485 219.504L269.781 221.296ZM265.973 216.944C265.973 217.456 266.144 217.851 266.485 218.128C266.848 218.405 267.328 218.544 267.925 218.544C268.565 218.544 269.141 218.309 269.653 217.84C270.165 217.371 270.421 216.72 270.421 215.888V214.768C270.229 214.747 269.952 214.736 269.589 214.736C268.48 214.736 267.594 214.928 266.933 215.312C266.293 215.675 265.973 216.219 265.973 216.944ZM287.666 204.464C289.288 204.464 290.717 204.773 291.954 205.392C293.192 206.011 294.141 206.853 294.802 207.92C295.485 208.965 295.858 210.139 295.922 211.44H290.354C290.12 209.392 289.181 208.368 287.538 208.368C286.578 208.368 285.842 208.784 285.33 209.616C284.818 210.427 284.562 211.653 284.562 213.296C284.562 216.795 285.576 218.544 287.602 218.544C288.285 218.544 288.872 218.299 289.362 217.808C289.853 217.317 290.173 216.624 290.322 215.728H295.986C295.666 217.883 294.728 219.547 293.17 220.72C291.613 221.872 289.65 222.448 287.282 222.448C285.64 222.448 284.168 222.107 282.866 221.424C281.565 220.72 280.541 219.707 279.794 218.384C279.048 217.061 278.674 215.483 278.674 213.648C278.674 211.749 279.069 210.107 279.858 208.72C280.648 207.333 281.725 206.277 283.09 205.552C284.456 204.827 285.981 204.464 287.666 204.464ZM304.176 222H298.416V198.48H304.176V212.08L310.192 204.912H316.944L309.712 212.752L317.04 222H309.968L305.392 215.664L304.176 217.008V222ZM336.259 200.048C339.033 200.368 341.283 201.403 343.011 203.152C344.739 204.901 345.603 207.408 345.603 210.672C345.603 212.891 345.187 214.811 344.355 216.432C343.545 218.053 342.425 219.323 340.995 220.24C339.587 221.136 338.009 221.68 336.259 221.872C335.513 221.957 334.574 222 333.443 222H325.091V199.92H333.443C334.574 199.92 335.513 199.963 336.259 200.048ZM332.643 217.52C333.539 217.52 334.233 217.499 334.723 217.456C336.195 217.328 337.369 216.667 338.243 215.472C339.139 214.277 339.587 212.709 339.587 210.768C339.587 208.848 339.15 207.355 338.275 206.288C337.401 205.2 336.217 204.592 334.723 204.464C334.233 204.421 333.539 204.4 332.643 204.4H330.851V217.52H332.643ZM364.964 213.232C364.964 213.765 364.932 214.32 364.868 214.896H352.964C353.092 216.24 353.423 217.189 353.956 217.744C354.511 218.277 355.236 218.544 356.132 218.544C356.943 218.544 357.593 218.352 358.084 217.968C358.575 217.584 358.873 217.061 358.98 216.4H364.644C364.153 218.32 363.151 219.813 361.636 220.88C360.121 221.925 358.265 222.448 356.068 222.448C354.404 222.448 352.9 222.117 351.556 221.456C350.233 220.795 349.188 219.792 348.42 218.448C347.652 217.104 347.268 215.461 347.268 213.52C347.268 211.835 347.631 210.309 348.356 208.944C349.103 207.557 350.159 206.469 351.524 205.68C352.911 204.869 354.532 204.464 356.388 204.464C358.201 204.464 359.748 204.88 361.028 205.712C362.329 206.523 363.311 207.6 363.972 208.944C364.633 210.288 364.964 211.717 364.964 213.232ZM358.948 211.376C358.628 209.371 357.679 208.368 356.1 208.368C354.5 208.368 353.519 209.371 353.156 211.376H358.948ZM372.471 222L365.719 204.912H372.119L375.639 217.424L379.127 204.912H385.431L378.679 222H372.471ZM402.808 213.232C402.808 213.765 402.776 214.32 402.712 214.896H390.808C390.936 216.24 391.266 217.189 391.8 217.744C392.354 218.277 393.08 218.544 393.976 218.544C394.786 218.544 395.437 218.352 395.928 217.968C396.418 217.584 396.717 217.061 396.824 216.4H402.488C401.997 218.32 400.994 219.813 399.48 220.88C397.965 221.925 396.109 222.448 393.912 222.448C392.248 222.448 390.744 222.117 389.4 221.456C388.077 220.795 387.032 219.792 386.264 218.448C385.496 217.104 385.112 215.461 385.112 213.52C385.112 211.835 385.474 210.309 386.2 208.944C386.946 207.557 388.002 206.469 389.368 205.68C390.754 204.869 392.376 204.464 394.232 204.464C396.045 204.464 397.592 204.88 398.872 205.712C400.173 206.523 401.154 207.6 401.816 208.944C402.477 210.288 402.808 211.717 402.808 213.232ZM396.792 211.376C396.472 209.371 395.522 208.368 393.944 208.368C392.344 208.368 391.362 209.371 391 211.376H396.792ZM410.923 215.856C410.923 216.624 410.944 217.147 410.987 217.424C411.029 217.765 411.168 218 411.403 218.128C411.659 218.235 412.149 218.277 412.875 218.256V222.16C411.701 222.267 410.581 222.32 409.515 222.32C406.784 222.32 405.355 221.211 405.227 218.992C405.184 218.395 405.163 217.381 405.163 215.952V198.48H410.923V215.856ZM423.265 204.464C425.121 204.464 426.742 204.837 428.129 205.584C429.515 206.309 430.582 207.355 431.329 208.72C432.075 210.064 432.449 211.643 432.449 213.456C432.449 215.269 432.075 216.859 431.329 218.224C430.582 219.568 429.515 220.613 428.129 221.36C426.742 222.085 425.121 222.448 423.265 222.448C421.409 222.448 419.787 222.085 418.401 221.36C417.014 220.613 415.947 219.568 415.201 218.224C414.454 216.859 414.081 215.269 414.081 213.456C414.081 211.643 414.454 210.064 415.201 208.72C415.947 207.355 417.014 206.309 418.401 205.584C419.787 204.837 421.409 204.464 423.265 204.464ZM419.969 213.456C419.969 215.12 420.257 216.389 420.833 217.264C421.409 218.117 422.219 218.544 423.265 218.544C424.31 218.544 425.121 218.117 425.697 217.264C426.273 216.389 426.561 215.12 426.561 213.456C426.561 211.771 426.273 210.501 425.697 209.648C425.121 208.795 424.31 208.368 423.265 208.368C422.219 208.368 421.409 208.795 420.833 209.648C420.257 210.501 419.969 211.771 419.969 213.456ZM446.339 204.464C447.853 204.464 449.176 204.827 450.307 205.552C451.459 206.277 452.333 207.291 452.931 208.592C453.549 209.893 453.859 211.387 453.859 213.072C453.859 215.035 453.496 216.72 452.771 218.128C452.045 219.536 451.064 220.613 449.827 221.36C448.611 222.085 447.256 222.448 445.763 222.448C445.037 222.448 444.301 222.373 443.555 222.224C442.829 222.075 442.253 221.872 441.827 221.616L440.707 219.792V228.272H434.947V204.912H440.707V207.408L441.987 205.52C442.456 205.179 443.075 204.923 443.843 204.752C444.611 204.56 445.443 204.464 446.339 204.464ZM440.707 213.968C440.707 215.547 441.037 216.709 441.699 217.456C442.381 218.181 443.213 218.544 444.195 218.544C445.347 218.544 446.264 218.107 446.947 217.232C447.629 216.336 447.971 215.045 447.971 213.36C447.971 211.803 447.629 210.587 446.947 209.712C446.264 208.816 445.4 208.368 444.355 208.368C443.224 208.368 442.328 208.752 441.667 209.52C441.027 210.288 440.707 211.525 440.707 213.232V213.968ZM473.089 213.232C473.089 213.765 473.057 214.32 472.993 214.896H461.089C461.217 216.24 461.548 217.189 462.081 217.744C462.636 218.277 463.361 218.544 464.257 218.544C465.068 218.544 465.718 218.352 466.209 217.968C466.7 217.584 466.998 217.061 467.105 216.4H472.769C472.278 218.32 471.276 219.813 469.761 220.88C468.246 221.925 466.39 222.448 464.193 222.448C462.529 222.448 461.025 222.117 459.681 221.456C458.358 220.795 457.313 219.792 456.545 218.448C455.777 217.104 455.393 215.461 455.393 213.52C455.393 211.835 455.756 210.309 456.481 208.944C457.228 207.557 458.284 206.469 459.649 205.68C461.036 204.869 462.657 204.464 464.513 204.464C466.326 204.464 467.873 204.88 469.153 205.712C470.454 206.523 471.436 207.6 472.097 208.944C472.758 210.288 473.089 211.717 473.089 213.232ZM467.073 211.376C466.753 209.371 465.804 208.368 464.225 208.368C462.625 208.368 461.644 209.371 461.281 211.376H467.073ZM485.908 204.464C486.377 204.464 486.814 204.496 487.22 204.56V209.264C487.006 209.243 486.697 209.232 486.292 209.232C485.076 209.232 484.105 209.445 483.38 209.872C482.654 210.299 482.132 210.981 481.812 211.92C481.492 212.859 481.332 214.128 481.332 215.728V222H475.572V204.912H481.332V208.368L482.548 205.968C482.996 205.477 483.518 205.104 484.116 204.848C484.734 204.592 485.332 204.464 485.908 204.464Z" fill="url(#paint3_linear_35_2)" fill-opacity="0.8"/>
<path d="M540.76 212.304C540.76 213.499 540.728 214.533 540.664 215.408C540.515 217.456 539.651 219.141 538.072 220.464C536.515 221.787 534.147 222.448 530.968 222.448C527.789 222.448 525.411 221.787 523.832 220.464C522.275 219.141 521.421 217.456 521.272 215.408C521.208 214.533 521.176 213.499 521.176 212.304V199.92H526.936V213.36C526.936 213.979 526.947 214.416 526.968 214.672C527.139 217.04 528.472 218.224 530.968 218.224C533.464 218.224 534.797 217.04 534.968 214.672C534.989 214.416 535 213.979 535 213.36V199.92H540.76V212.304ZM544.529 199.92H550.289V222H544.529V199.92ZM559.903 198.96H563.263L555.231 222.96H551.871L559.903 198.96ZM584.854 212.304C584.854 213.499 584.822 214.533 584.758 215.408C584.608 217.456 583.744 219.141 582.166 220.464C580.608 221.787 578.24 222.448 575.062 222.448C571.883 222.448 569.504 221.787 567.926 220.464C566.368 219.141 565.515 217.456 565.366 215.408C565.302 214.533 565.27 213.499 565.27 212.304V199.92H571.03V213.36C571.03 213.979 571.04 214.416 571.062 214.672C571.232 217.04 572.566 218.224 575.062 218.224C577.558 218.224 578.891 217.04 579.062 214.672C579.083 214.416 579.094 213.979 579.094 213.36V199.92H584.854V212.304ZM593.455 222H586.511L594.415 210.864L587.055 199.92H593.775L597.935 207.28L602.415 199.92H609.039L601.327 210.768L609.103 222H602.383L597.743 214.544L593.455 222ZM628.353 200.048C631.126 200.368 633.377 201.403 635.105 203.152C636.833 204.901 637.697 207.408 637.697 210.672C637.697 212.891 637.281 214.811 636.449 216.432C635.638 218.053 634.518 219.323 633.089 220.24C631.681 221.136 630.102 221.68 628.353 221.872C627.606 221.957 626.668 222 625.537 222H617.185V199.92H625.537C626.668 199.92 627.606 199.963 628.353 200.048ZM624.737 217.52C625.633 217.52 626.326 217.499 626.817 217.456C628.289 217.328 629.462 216.667 630.337 215.472C631.233 214.277 631.681 212.709 631.681 210.768C631.681 208.848 631.244 207.355 630.369 206.288C629.494 205.2 628.31 204.592 626.817 204.464C626.326 204.421 625.633 204.4 624.737 204.4H622.945V217.52H624.737ZM657.058 213.232C657.058 213.765 657.026 214.32 656.962 214.896H645.058C645.186 216.24 645.516 217.189 646.05 217.744C646.604 218.277 647.33 218.544 648.226 218.544C649.036 218.544 649.687 218.352 650.178 217.968C650.668 217.584 650.967 217.061 651.074 216.4H656.738C656.247 218.32 655.244 219.813 653.73 220.88C652.215 221.925 650.359 222.448 648.162 222.448C646.498 222.448 644.994 222.117 643.65 221.456C642.327 220.795 641.282 219.792 640.514 218.448C639.746 217.104 639.362 215.461 639.362 213.52C639.362 211.835 639.724 210.309 640.45 208.944C641.196 207.557 642.252 206.469 643.618 205.68C645.004 204.869 646.626 204.464 648.482 204.464C650.295 204.464 651.842 204.88 653.122 205.712C654.423 206.523 655.404 207.6 656.066 208.944C656.727 210.288 657.058 211.717 657.058 213.232ZM651.042 211.376C650.722 209.371 649.772 208.368 648.194 208.368C646.594 208.368 645.612 209.371 645.25 211.376H651.042ZM666.581 204.464C668.629 204.464 670.271 204.965 671.509 205.968C672.767 206.971 673.514 208.283 673.749 209.904H668.085C667.807 208.667 667.189 208.048 666.229 208.048C665.823 208.048 665.493 208.165 665.237 208.4C664.981 208.635 664.853 208.933 664.853 209.296C664.853 209.808 665.13 210.245 665.685 210.608C666.261 210.949 667.327 211.312 668.885 211.696C670.591 212.123 671.903 212.752 672.821 213.584C673.738 214.395 674.197 215.568 674.197 217.104C674.197 218.853 673.482 220.187 672.053 221.104C670.645 222 668.842 222.448 666.645 222.448C664.277 222.448 662.357 221.957 660.885 220.976C659.434 219.995 658.602 218.565 658.389 216.688H664.053C664.202 217.349 664.511 217.883 664.981 218.288C665.45 218.672 665.994 218.864 666.613 218.864C667.146 218.864 667.583 218.757 667.925 218.544C668.266 218.309 668.437 217.979 668.437 217.552C668.437 217.019 668.127 216.581 667.509 216.24C666.911 215.877 665.845 215.515 664.309 215.152C662.602 214.747 661.301 214.139 660.405 213.328C659.53 212.496 659.093 211.376 659.093 209.968C659.093 208.283 659.765 206.949 661.109 205.968C662.474 204.965 664.298 204.464 666.581 204.464ZM676.447 204.912H682.207V222H676.447V204.912ZM676.415 198.064H682.271V203.696H676.415V198.064ZM703.618 217.648C703.618 219.227 703.607 220.325 703.586 220.944C703.5 223.653 702.594 225.68 700.866 227.024C699.138 228.368 696.77 229.04 693.762 229.04C691.18 229.04 689.143 228.528 687.65 227.504C686.178 226.48 685.335 224.997 685.122 223.056L685.09 222.736H690.658L690.69 223.056C690.754 223.611 691.074 224.037 691.65 224.336C692.247 224.656 693.004 224.816 693.922 224.816C695.052 224.816 695.959 224.549 696.642 224.016C697.324 223.504 697.708 222.693 697.794 221.584C697.836 220.901 697.858 220.155 697.858 219.344V218.864L696.578 220.752C695.618 221.456 694.274 221.808 692.546 221.808C691.01 221.808 689.644 221.477 688.45 220.816C687.276 220.133 686.359 219.173 685.698 217.936C685.036 216.699 684.706 215.248 684.706 213.584C684.706 211.621 685.068 209.957 685.794 208.592C686.519 207.227 687.49 206.203 688.706 205.52C689.943 204.816 691.308 204.464 692.802 204.464C693.527 204.464 694.252 204.539 694.978 204.688C695.724 204.837 696.311 205.04 696.738 205.296L697.858 207.12V204.912H703.618V217.648ZM690.594 213.168C690.594 214.704 690.924 215.877 691.586 216.688C692.268 217.499 693.143 217.904 694.21 217.904C695.34 217.904 696.226 217.52 696.866 216.752C697.527 215.984 697.858 214.747 697.858 213.04V212.944C697.858 211.365 697.516 210.213 696.834 209.488C696.172 208.741 695.351 208.368 694.37 208.368C691.852 208.368 690.594 209.968 690.594 213.168ZM724.256 209.104C724.362 209.829 724.416 210.907 724.416 212.336V222H718.656V213.296C718.656 212.315 718.634 211.536 718.592 210.96C718.528 210.128 718.261 209.488 717.792 209.04C717.344 208.592 716.693 208.368 715.84 208.368C714.922 208.368 714.186 208.837 713.632 209.776C713.098 210.693 712.832 212.08 712.832 213.936V222H707.072V204.912H712.832V207.568L714.368 205.456C715.456 204.795 716.736 204.464 718.208 204.464C719.957 204.464 721.344 204.869 722.368 205.68C723.392 206.469 724.021 207.611 724.256 209.104ZM744.402 213.232C744.402 213.765 744.37 214.32 744.306 214.896H732.402C732.53 216.24 732.86 217.189 733.394 217.744C733.948 218.277 734.674 218.544 735.57 218.544C736.38 218.544 737.031 218.352 737.522 217.968C738.012 217.584 738.311 217.061 738.418 216.4H744.082C743.591 218.32 742.588 219.813 741.074 220.88C739.559 221.925 737.703 222.448 735.506 222.448C733.842 222.448 732.338 222.117 730.994 221.456C729.671 220.795 728.626 219.792 727.858 218.448C727.09 217.104 726.706 215.461 726.706 213.52C726.706 211.835 727.068 210.309 727.794 208.944C728.54 207.557 729.596 206.469 730.962 205.68C732.348 204.869 733.97 204.464 735.826 204.464C737.639 204.464 739.186 204.88 740.466 205.712C741.767 206.523 742.748 207.6 743.41 208.944C744.071 210.288 744.402 211.717 744.402 213.232ZM738.386 211.376C738.066 209.371 737.116 208.368 735.538 208.368C733.938 208.368 732.956 209.371 732.594 211.376H738.386ZM757.22 204.464C757.69 204.464 758.127 204.496 758.532 204.56V209.264C758.319 209.243 758.01 209.232 757.604 209.232C756.388 209.232 755.418 209.445 754.692 209.872C753.967 210.299 753.444 210.981 753.124 211.92C752.804 212.859 752.644 214.128 752.644 215.728V222H746.884V204.912H752.644V208.368L753.86 205.968C754.308 205.477 754.831 205.104 755.428 204.848C756.047 204.592 756.644 204.464 757.22 204.464Z" fill="url(#paint4_linear_35_2)" fill-opacity="0.8"/>
<defs>
<radialGradient id="paint0_radial_35_2" cx="0" cy="0" r="1" gradientUnits="userSpaceOnUse" gradientTransform="translate(573 -43) rotate(147.036) scale(678.175 678.175)">
<stop offset="0.48" stop-opacity="0"/>
<stop offset="0.56" stop-color="#88BCD6" stop-opacity="0.05"/>
<stop offset="0.64" stop-color="#94BFC9" stop-opacity="0.1"/>
<stop offset="0.76" stop-color="#73E0EC" stop-opacity="0.21"/>
<stop offset="0.88" stop-color="#B4FFE1" stop-opacity="0.33"/>
<stop offset="1" stop-color="#C1FFF3" stop-opacity="0.61"/>
</radialGradient>
<linearGradient id="paint1_linear_35_2" x1="916" y1="3.99998" x2="3.99998" y2="326" gradientUnits="userSpaceOnUse">
<stop stop-color="#557786"/>
<stop offset="0.061637" stop-color="#072735"/>
<stop offset="0.940258" stop-color="#16323D"/>
<stop offset="1" stop-color="#E0F4FD"/>
</linearGradient>
<linearGradient id="paint2_linear_35_2" x1="87" y1="188" x2="818.086" y2="54.0568" gradientUnits="userSpaceOnUse">
<stop stop-color="#DDDDDD"/>
<stop offset="1" stop-color="#80AAB7"/>
</linearGradient>
<linearGradient id="paint3_linear_35_2" x1="324.5" y1="188" x2="324.5" y2="233" gradientUnits="userSpaceOnUse">
<stop stop-color="#B8D9FB" stop-opacity="0.8"/>
<stop offset="1" stop-color="#C6C6C6" stop-opacity="0.8"/>
</linearGradient>
<linearGradient id="paint4_linear_35_2" x1="639" y1="188" x2="639" y2="233" gradientUnits="userSpaceOnUse">
<stop stop-color="#B8D9FB" stop-opacity="0.8"/>
<stop offset="1" stop-color="#C6C6C6" stop-opacity="0.8"/>
</linearGradient>
</defs>
</svg>
