<svg width="920" height="330" viewBox="0 0 920 330" fill="none" xmlns="http://www.w3.org/2000/svg">
<rect x="2" y="2" width="916" height="326" fill="black"/>
<rect x="2" y="2" width="916" height="326" fill="url(#paint0_radial_35_2)"/>
<rect x="2" y="2" width="916" height="326" stroke="url(#paint1_linear_35_2)" stroke-width="4"/>
<path d="M113.042 127.6C116.715 127.6 120.002 128.219 122.902 129.456C125.802 130.693 128.257 132.375 130.268 134.502C132.279 136.59 133.806 139.065 134.85 141.926C135.933 144.749 136.474 147.784 136.474 151.032C136.474 154.551 135.894 157.76 134.734 160.66C133.574 163.521 131.95 165.977 129.862 168.026C127.813 170.075 125.357 171.661 122.496 172.782C119.635 173.903 116.483 174.464 113.042 174.464C109.175 174.464 105.773 173.845 102.834 172.608C99.934 171.371 97.498 169.708 95.526 167.62C93.554 165.493 92.0653 163.019 91.06 160.196C90.0933 157.335 89.61 154.28 89.61 151.032C89.61 147.784 90.1513 144.749 91.234 141.926C92.3167 139.065 93.8633 136.59 95.874 134.502C97.9233 132.375 100.398 130.693 103.298 129.456C106.198 128.219 109.446 127.6 113.042 127.6ZM113.042 165.416C114.821 165.416 116.425 165.068 117.856 164.372C119.287 163.676 120.485 162.709 121.452 161.472C122.419 160.196 123.153 158.669 123.656 156.89C124.197 155.111 124.468 153.139 124.468 150.974C124.468 148.963 124.236 147.088 123.772 145.348C123.347 143.608 122.67 142.081 121.742 140.766C120.814 139.451 119.635 138.427 118.204 137.692C116.773 136.919 115.053 136.532 113.042 136.532C111.031 136.532 109.291 136.919 107.822 137.692C106.391 138.465 105.212 139.509 104.284 140.824C103.356 142.1 102.66 143.627 102.196 145.406C101.771 147.146 101.558 149.002 101.558 150.974C101.558 152.946 101.79 154.821 102.254 156.6C102.718 158.34 103.414 159.867 104.342 161.182C105.27 162.497 106.449 163.541 107.88 164.314C109.349 165.049 111.07 165.416 113.042 165.416ZM165.632 148.48C165.361 148.441 164.897 148.422 164.24 148.422C163.582 148.383 162.848 148.403 162.036 148.48C161.224 148.519 160.354 148.635 159.426 148.828C158.536 148.983 157.724 149.234 156.99 149.582C155.791 150.162 154.824 150.819 154.09 151.554C153.355 152.289 152.833 152.869 152.524 153.294V174H141.562V139.548H152.234V146.45C152.427 145.909 152.814 145.116 153.394 144.072C154.012 142.989 154.979 141.984 156.294 141.056C157.299 140.321 158.304 139.819 159.31 139.548C160.354 139.277 161.301 139.142 162.152 139.142C163.041 139.103 163.795 139.142 164.414 139.258C165.032 139.374 165.438 139.451 165.632 139.49V148.48ZM180.297 125.396V134.85H167.769V125.396H180.297ZM179.543 174H168.581V139.548H179.543V174ZM200.122 139.142C203.022 139.142 205.535 139.606 207.662 140.534C209.827 141.462 211.625 142.719 213.056 144.304C214.486 145.889 215.55 147.765 216.246 149.93C216.98 152.057 217.348 154.357 217.348 156.832C217.348 159.307 217 161.627 216.304 163.792C215.608 165.919 214.544 167.775 213.114 169.36C211.683 170.945 209.866 172.202 207.662 173.13C205.496 174.019 202.925 174.464 199.948 174.464C197.55 174.464 195.288 174.077 193.162 173.304C191.074 172.492 189.237 171.332 187.652 169.824C186.105 168.316 184.868 166.479 183.94 164.314C183.05 162.11 182.606 159.616 182.606 156.832C182.606 154.203 183.05 151.805 183.94 149.64C184.868 147.436 186.105 145.561 187.652 144.014C189.237 142.467 191.093 141.269 193.22 140.418C195.346 139.567 197.647 139.142 200.122 139.142ZM199.832 166.112C202.268 166.112 204.104 165.261 205.342 163.56C206.579 161.859 207.198 159.597 207.198 156.774C207.198 155.459 207.062 154.241 206.792 153.12C206.521 151.999 206.096 151.013 205.516 150.162C204.936 149.311 204.182 148.654 203.254 148.19C202.326 147.687 201.204 147.436 199.89 147.436C197.531 147.436 195.752 148.267 194.554 149.93C193.355 151.593 192.756 153.874 192.756 156.774C192.756 159.713 193.355 162.013 194.554 163.676C195.752 165.3 197.512 166.112 199.832 166.112ZM255.053 174H244.207V154.338C244.245 153.565 244.168 152.791 243.975 152.018C243.781 151.245 243.453 150.549 242.989 149.93C242.525 149.311 241.925 148.809 241.191 148.422C240.456 148.035 239.567 147.842 238.523 147.842C236.899 147.842 235.468 148.364 234.231 149.408C233.032 150.452 232.433 151.96 232.433 153.932V174H221.413V139.548H232.433L232.375 145.522C232.723 144.594 233.206 143.743 233.825 142.97C234.482 142.158 235.255 141.481 236.145 140.94C237.034 140.36 238.02 139.915 239.103 139.606C240.224 139.258 241.403 139.084 242.641 139.084C244.265 139.084 245.831 139.355 247.339 139.896C248.847 140.437 250.161 141.23 251.283 142.274C252.443 143.318 253.351 144.633 254.009 146.218C254.705 147.765 255.053 149.582 255.053 151.67V174ZM322.219 156.658C321.716 159.21 320.904 161.588 319.783 163.792C318.661 165.957 317.192 167.833 315.375 169.418C313.557 171.003 311.353 172.241 308.763 173.13C306.211 174.019 303.214 174.464 299.773 174.464C296.679 174.464 293.741 173.981 290.957 173.014C288.211 172.009 285.795 170.539 283.707 168.606C281.619 166.634 279.956 164.198 278.719 161.298C277.52 158.398 276.921 155.034 276.921 151.206C276.921 147.958 277.443 144.923 278.487 142.1C279.569 139.239 281.116 136.764 283.127 134.676C285.137 132.549 287.554 130.867 290.377 129.63C293.238 128.393 296.467 127.774 300.063 127.774C303.117 127.774 305.901 128.199 308.415 129.05C310.967 129.862 313.171 131.022 315.027 132.53C316.921 134.038 318.468 135.875 319.667 138.04C320.904 140.205 321.735 142.622 322.161 145.29L311.953 146.45C311.643 145.058 311.199 143.763 310.619 142.564C310.039 141.365 309.304 140.341 308.415 139.49C307.525 138.601 306.443 137.924 305.167 137.46C303.929 136.957 302.499 136.706 300.875 136.706C298.632 136.706 296.776 137.17 295.307 138.098C293.876 138.987 292.735 140.128 291.885 141.52C291.034 142.912 290.435 144.459 290.087 146.16C289.777 147.861 289.623 149.505 289.623 151.09C289.623 155.653 290.628 159.191 292.639 161.704C294.649 164.179 297.356 165.416 300.759 165.416C303.736 165.416 306.133 164.604 307.951 162.98C309.807 161.317 311.121 158.959 311.895 155.904L322.219 156.658ZM360.117 174H349.329V154.744C349.329 153.971 349.232 153.197 349.039 152.424C348.846 151.651 348.517 150.974 348.053 150.394C347.628 149.775 347.048 149.273 346.313 148.886C345.617 148.499 344.728 148.306 343.645 148.306C342.833 148.306 342.06 148.441 341.325 148.712C340.629 148.983 339.991 149.389 339.411 149.93C338.87 150.433 338.425 151.071 338.077 151.844C337.768 152.579 337.613 153.429 337.613 154.396V174H326.651V127.89H337.613V145.986C337.768 145.097 338.154 144.246 338.773 143.434C339.392 142.583 340.165 141.849 341.093 141.23C342.021 140.573 343.065 140.07 344.225 139.722C345.385 139.335 346.584 139.142 347.821 139.142C349.445 139.142 350.992 139.432 352.461 140.012C353.969 140.592 355.284 141.443 356.405 142.564C357.526 143.647 358.416 145 359.073 146.624C359.769 148.209 360.117 150.027 360.117 152.076V174ZM390.042 148.48C389.771 148.441 389.307 148.422 388.65 148.422C387.993 148.383 387.258 148.403 386.446 148.48C385.634 148.519 384.764 148.635 383.836 148.828C382.947 148.983 382.135 149.234 381.4 149.582C380.201 150.162 379.235 150.819 378.5 151.554C377.765 152.289 377.243 152.869 376.934 153.294V174H365.972V139.548H376.644V146.45C376.837 145.909 377.224 145.116 377.804 144.072C378.423 142.989 379.389 141.984 380.704 141.056C381.709 140.321 382.715 139.819 383.72 139.548C384.764 139.277 385.711 139.142 386.562 139.142C387.451 139.103 388.205 139.142 388.824 139.258C389.443 139.374 389.849 139.451 390.042 139.49V148.48ZM404.707 125.396V134.85H392.179V125.396H404.707ZM403.953 174H392.991V139.548H403.953V174ZM439.315 162.632C439.315 164.681 438.89 166.46 438.039 167.968C437.188 169.437 436.048 170.655 434.617 171.622C433.186 172.589 431.504 173.304 429.571 173.768C427.638 174.232 425.608 174.464 423.481 174.464C421.045 174.464 418.822 174.155 416.811 173.536C414.8 172.879 413.08 172.028 411.649 170.984C410.257 169.901 409.155 168.683 408.343 167.33C407.57 165.977 407.183 164.604 407.183 163.212L416.405 162.11C416.405 163.077 416.656 163.869 417.159 164.488C417.7 165.068 418.338 165.532 419.073 165.88C419.846 166.189 420.639 166.402 421.451 166.518C422.263 166.634 422.959 166.692 423.539 166.692C424.042 166.692 424.602 166.653 425.221 166.576C425.878 166.499 426.478 166.363 427.019 166.17C427.599 165.977 428.082 165.687 428.469 165.3C428.856 164.913 429.049 164.43 429.049 163.85C429.049 162.961 428.527 162.265 427.483 161.762C426.439 161.259 425.144 160.834 423.597 160.486C422.05 160.099 420.349 159.713 418.493 159.326C416.676 158.939 414.994 158.398 413.447 157.702C411.9 156.967 410.605 156.001 409.561 154.802C408.517 153.603 407.995 152.037 407.995 150.104C407.995 148.828 408.227 147.552 408.691 146.276C409.194 144.961 410.025 143.782 411.185 142.738C412.345 141.655 413.892 140.785 415.825 140.128C417.758 139.432 420.175 139.084 423.075 139.084C425.743 139.084 428.044 139.413 429.977 140.07C431.91 140.689 433.496 141.501 434.733 142.506C436.009 143.511 436.937 144.613 437.517 145.812C438.097 147.011 438.387 148.19 438.387 149.35L429.107 150.51C429.107 150.355 429.049 150.065 428.933 149.64C428.817 149.176 428.546 148.712 428.121 148.248C427.696 147.745 427.058 147.32 426.207 146.972C425.395 146.585 424.274 146.392 422.843 146.392C421.335 146.392 420.194 146.624 419.421 147.088C418.648 147.513 418.261 148.035 418.261 148.654C418.261 149.543 418.783 150.22 419.827 150.684C420.871 151.148 422.166 151.573 423.713 151.96C425.26 152.347 426.942 152.753 428.759 153.178C430.615 153.603 432.316 154.183 433.863 154.918C435.41 155.653 436.705 156.639 437.749 157.876C438.793 159.075 439.315 160.66 439.315 162.632ZM441.603 147.668V141.114C443.498 141.191 445.006 140.708 446.127 139.664C447.248 138.62 448.118 137.441 448.737 136.126C449.433 134.579 449.936 132.839 450.245 130.906H456.973V139.548H465.789V147.668H456.973V162.748C456.973 163.328 457.089 163.831 457.321 164.256C457.514 164.643 457.843 164.991 458.307 165.3C458.81 165.571 459.544 165.706 460.511 165.706C461.323 165.706 462.058 165.648 462.715 165.532C463.411 165.416 464.01 165.261 464.513 165.068C465.093 164.875 465.634 164.643 466.137 164.372V171.448C465.402 172.221 464.474 172.821 463.353 173.246C462.27 173.633 461.207 173.923 460.163 174.116C458.926 174.309 457.669 174.425 456.393 174.464C455.04 174.464 453.841 174.329 452.797 174.058C451.792 173.787 450.902 173.439 450.129 173.014C449.394 172.55 448.776 172.028 448.273 171.448C447.809 170.868 447.422 170.269 447.113 169.65C446.417 168.258 446.05 166.653 446.011 164.836V147.668H441.603ZM485.704 139.142C488.604 139.142 491.117 139.606 493.244 140.534C495.409 141.462 497.207 142.719 498.638 144.304C500.068 145.889 501.132 147.765 501.828 149.93C502.562 152.057 502.93 154.357 502.93 156.832C502.93 159.307 502.582 161.627 501.886 163.792C501.19 165.919 500.126 167.775 498.696 169.36C497.265 170.945 495.448 172.202 493.244 173.13C491.078 174.019 488.507 174.464 485.53 174.464C483.132 174.464 480.87 174.077 478.744 173.304C476.656 172.492 474.819 171.332 473.234 169.824C471.687 168.316 470.45 166.479 469.522 164.314C468.632 162.11 468.188 159.616 468.188 156.832C468.188 154.203 468.632 151.805 469.522 149.64C470.45 147.436 471.687 145.561 473.234 144.014C474.819 142.467 476.675 141.269 478.802 140.418C480.928 139.567 483.229 139.142 485.704 139.142ZM485.414 166.112C487.85 166.112 489.686 165.261 490.924 163.56C492.161 161.859 492.78 159.597 492.78 156.774C492.78 155.459 492.644 154.241 492.374 153.12C492.103 151.999 491.678 151.013 491.098 150.162C490.518 149.311 489.764 148.654 488.836 148.19C487.908 147.687 486.786 147.436 485.472 147.436C483.113 147.436 481.334 148.267 480.136 149.93C478.937 151.593 478.338 153.874 478.338 156.774C478.338 159.713 478.937 162.013 480.136 163.676C481.334 165.3 483.094 166.112 485.414 166.112ZM530.192 139.084C532.512 139.084 534.581 139.548 536.398 140.476C538.254 141.404 539.801 142.68 541.038 144.304C542.275 145.889 543.223 147.765 543.88 149.93C544.537 152.057 544.866 154.338 544.866 156.774C544.866 159.21 544.537 161.511 543.88 163.676C543.223 165.803 542.275 167.678 541.038 169.302C539.801 170.887 538.254 172.144 536.398 173.072C534.581 174 532.512 174.464 530.192 174.464C527.601 174.464 525.301 173.865 523.29 172.666C521.318 171.429 519.791 169.747 518.708 167.62V185.89H507.688V139.548H518.708V145.464C519.713 143.569 521.202 142.042 523.174 140.882C525.185 139.683 527.524 139.084 530.192 139.084ZM526.248 165.532C527.447 165.532 528.529 165.3 529.496 164.836C530.463 164.333 531.255 163.676 531.874 162.864C532.531 162.013 533.034 161.027 533.382 159.906C533.73 158.785 533.904 157.586 533.904 156.31C533.904 155.034 533.73 153.835 533.382 152.714C533.034 151.593 532.531 150.626 531.874 149.814C531.255 148.963 530.463 148.306 529.496 147.842C528.529 147.339 527.447 147.088 526.248 147.088C524.972 147.088 523.87 147.32 522.942 147.784C522.014 148.248 521.241 148.886 520.622 149.698C520.003 150.51 519.539 151.477 519.23 152.598C518.921 153.681 518.766 154.86 518.766 156.136V156.31V156.426C518.766 157.702 518.94 158.901 519.288 160.022C519.636 161.105 520.119 162.052 520.738 162.864C521.395 163.676 522.188 164.333 523.116 164.836C524.044 165.3 525.088 165.532 526.248 165.532ZM518.708 156.136V156.426V156.31V156.136ZM582.205 174H571.417V154.744C571.417 153.971 571.32 153.197 571.127 152.424C570.934 151.651 570.605 150.974 570.141 150.394C569.716 149.775 569.136 149.273 568.401 148.886C567.705 148.499 566.816 148.306 565.733 148.306C564.921 148.306 564.148 148.441 563.413 148.712C562.717 148.983 562.079 149.389 561.499 149.93C560.958 150.433 560.513 151.071 560.165 151.844C559.856 152.579 559.701 153.429 559.701 154.396V174H548.739V127.89H559.701V145.986C559.856 145.097 560.242 144.246 560.861 143.434C561.48 142.583 562.253 141.849 563.181 141.23C564.109 140.573 565.153 140.07 566.313 139.722C567.473 139.335 568.672 139.142 569.909 139.142C571.533 139.142 573.08 139.432 574.549 140.012C576.057 140.592 577.372 141.443 578.493 142.564C579.614 143.647 580.504 145 581.161 146.624C581.857 148.209 582.205 150.027 582.205 152.076V174ZM596.736 158.456C596.968 160.892 597.683 162.767 598.882 164.082C600.08 165.397 601.704 166.054 603.754 166.054C605.803 166.054 607.35 165.629 608.394 164.778C609.476 163.927 610.153 162.903 610.424 161.704L619.588 162.864C619.124 164.565 618.447 166.131 617.558 167.562C616.668 168.993 615.528 170.23 614.136 171.274C612.782 172.279 611.178 173.072 609.322 173.652C607.504 174.193 605.436 174.464 603.116 174.464C600.718 174.464 598.456 174.058 596.33 173.246C594.242 172.434 592.405 171.274 590.82 169.766C589.273 168.258 588.036 166.421 587.108 164.256C586.218 162.052 585.774 159.577 585.774 156.832C585.774 154.164 586.218 151.747 587.108 149.582C588.036 147.417 589.273 145.561 590.82 144.014C592.405 142.429 594.261 141.211 596.388 140.36C598.514 139.509 600.815 139.084 603.29 139.084C606.19 139.084 608.703 139.548 610.83 140.476C612.995 141.404 614.793 142.661 616.224 144.246C617.654 145.831 618.718 147.707 619.414 149.872C620.148 152.037 620.516 154.338 620.516 156.774C620.516 157.083 620.496 157.373 620.458 157.644C620.458 157.915 620.458 158.185 620.458 158.456H596.736ZM603.812 147.378C602.072 147.378 600.66 147.842 599.578 148.77C598.495 149.659 597.702 150.935 597.2 152.598H610.54C610.076 151.013 609.302 149.756 608.22 148.828C607.137 147.861 605.668 147.378 603.812 147.378ZM648.776 148.48C648.506 148.441 648.042 148.422 647.384 148.422C646.727 148.383 645.992 148.403 645.18 148.48C644.368 148.519 643.498 148.635 642.57 148.828C641.681 148.983 640.869 149.234 640.134 149.582C638.936 150.162 637.969 150.819 637.234 151.554C636.5 152.289 635.978 152.869 635.668 153.294V174H624.706V139.548H635.378V146.45C635.572 145.909 635.958 145.116 636.538 144.072C637.157 142.989 638.124 141.984 639.438 141.056C640.444 140.321 641.449 139.819 642.454 139.548C643.498 139.277 644.446 139.142 645.296 139.142C646.186 139.103 646.94 139.142 647.558 139.258C648.177 139.374 648.583 139.451 648.776 139.49V148.48ZM710.752 174H697.354L687.552 159.094H680.882V174H668.76V127.89H691.09C693.604 127.89 695.885 128.296 697.934 129.108C700.022 129.92 701.801 131.022 703.27 132.414C704.74 133.806 705.861 135.449 706.634 137.344C707.446 139.239 707.852 141.288 707.852 143.492C707.852 146.624 707.002 149.447 705.3 151.96C703.638 154.435 701.414 156.31 698.63 157.586L710.752 174ZM680.882 150.974H689.872C690.8 150.974 691.632 150.742 692.366 150.278C693.14 149.814 693.797 149.234 694.338 148.538C694.88 147.803 695.286 146.991 695.556 146.102C695.866 145.213 696.02 144.343 696.02 143.492C696.02 142.641 695.846 141.791 695.498 140.94C695.15 140.051 694.667 139.258 694.048 138.562C693.43 137.866 692.714 137.305 691.902 136.88C691.129 136.416 690.298 136.184 689.408 136.184H680.882V150.974ZM726.312 125.396V134.85H713.784V125.396H726.312ZM725.558 174H714.596V139.548H725.558V174ZM756.466 174L747.882 161.356L745.156 164.198V174H734.194V127.89H745.156V152.366L755.654 139.548H768.356L755.306 154.86L768.994 174H756.466ZM778.439 158.456C778.671 160.892 779.386 162.767 780.585 164.082C781.784 165.397 783.408 166.054 785.457 166.054C787.506 166.054 789.053 165.629 790.097 164.778C791.18 163.927 791.856 162.903 792.127 161.704L801.291 162.864C800.827 164.565 800.15 166.131 799.261 167.562C798.372 168.993 797.231 170.23 795.839 171.274C794.486 172.279 792.881 173.072 791.025 173.652C789.208 174.193 787.139 174.464 784.819 174.464C782.422 174.464 780.16 174.058 778.033 173.246C775.945 172.434 774.108 171.274 772.523 169.766C770.976 168.258 769.739 166.421 768.811 164.256C767.922 162.052 767.477 159.577 767.477 156.832C767.477 154.164 767.922 151.747 768.811 149.582C769.739 147.417 770.976 145.561 772.523 144.014C774.108 142.429 775.964 141.211 778.091 140.36C780.218 139.509 782.518 139.084 784.993 139.084C787.893 139.084 790.406 139.548 792.533 140.476C794.698 141.404 796.496 142.661 797.927 144.246C799.358 145.831 800.421 147.707 801.117 149.872C801.852 152.037 802.219 154.338 802.219 156.774C802.219 157.083 802.2 157.373 802.161 157.644C802.161 157.915 802.161 158.185 802.161 158.456H778.439ZM785.515 147.378C783.775 147.378 782.364 147.842 781.281 148.77C780.198 149.659 779.406 150.935 778.903 152.598H792.243C791.779 151.013 791.006 149.756 789.923 148.828C788.84 147.861 787.371 147.378 785.515 147.378ZM830.479 148.48C830.209 148.441 829.745 148.422 829.087 148.422C828.43 148.383 827.695 148.403 826.883 148.48C826.071 148.519 825.201 148.635 824.273 148.828C823.384 148.983 822.572 149.234 821.837 149.582C820.639 150.162 819.672 150.819 818.937 151.554C818.203 152.289 817.681 152.869 817.371 153.294V174H806.409V139.548H817.081V146.45C817.275 145.909 817.661 145.116 818.241 144.072C818.86 142.989 819.827 141.984 821.141 141.056C822.147 140.321 823.152 139.819 824.157 139.548C825.201 139.277 826.149 139.142 826.999 139.142C827.889 139.103 828.643 139.142 829.261 139.258C829.88 139.374 830.286 139.451 830.479 139.49V148.48Z" fill="url(#paint2_linear_35_2)"/>
<path d="M171.208 208.688V213.168H161.32V222H155.56V199.92H172.168V204.4H161.32V208.688H171.208ZM185.68 222V219.12L184.144 221.456C183.056 222.117 181.776 222.448 180.304 222.448C178.618 222.448 177.232 222.043 176.144 221.232C175.077 220.4 174.448 219.365 174.256 218.128C174.149 217.403 174.096 216.325 174.096 214.896V204.912H179.856V213.616C179.856 214.405 179.898 215.184 179.984 215.952C180.09 216.805 180.357 217.456 180.784 217.904C181.232 218.331 181.893 218.544 182.768 218.544C183.664 218.544 184.368 218.171 184.88 217.424C185.413 216.677 185.68 215.728 185.68 214.576V204.912H191.44V222H185.68ZM200.516 215.856C200.516 216.624 200.538 217.147 200.58 217.424C200.623 217.765 200.762 218 200.996 218.128C201.252 218.235 201.743 218.277 202.468 218.256V222.16C201.295 222.267 200.175 222.32 199.108 222.32C196.378 222.32 194.948 221.211 194.82 218.992C194.778 218.395 194.756 217.381 194.756 215.952V198.48H200.516V215.856ZM210.266 215.856C210.266 216.624 210.288 217.147 210.33 217.424C210.373 217.765 210.512 218 210.746 218.128C211.002 218.235 211.493 218.277 212.218 218.256V222.16C211.045 222.267 209.925 222.32 208.858 222.32C206.128 222.32 204.698 221.211 204.57 218.992C204.528 218.395 204.506 217.381 204.506 215.952V198.48H210.266V215.856ZM228.585 199.472C231.337 199.472 233.417 200.133 234.825 201.456C236.233 202.757 237.065 204.517 237.321 206.736H231.561C231.433 205.776 231.113 205.029 230.601 204.496C230.089 203.963 229.375 203.696 228.457 203.696C227.775 203.696 227.231 203.867 226.825 204.208C226.441 204.528 226.249 205.019 226.249 205.68C226.249 206.405 226.58 207.003 227.241 207.472C227.924 207.941 229.151 208.389 230.921 208.816C233.289 209.371 235.017 210.235 236.105 211.408C237.215 212.581 237.769 214.043 237.769 215.792C237.769 217.2 237.364 218.405 236.553 219.408C235.764 220.411 234.708 221.168 233.385 221.68C232.063 222.192 230.633 222.448 229.097 222.448C226.196 222.448 223.892 221.851 222.185 220.656C220.479 219.461 219.54 217.659 219.369 215.248H225.129C225.321 216.229 225.769 216.976 226.473 217.488C227.177 217.979 227.999 218.224 228.937 218.224C229.748 218.224 230.42 218.032 230.953 217.648C231.487 217.264 231.753 216.773 231.753 216.176C231.753 215.557 231.476 215.013 230.921 214.544C230.388 214.075 229.481 213.68 228.201 213.36C226.367 212.912 224.884 212.411 223.753 211.856C222.623 211.28 221.748 210.544 221.129 209.648C220.532 208.731 220.233 207.557 220.233 206.128C220.233 204.763 220.617 203.579 221.385 202.576C222.153 201.573 223.167 200.805 224.425 200.272C225.705 199.739 227.092 199.472 228.585 199.472ZM246.953 214.928C246.953 215.739 246.963 216.293 246.985 216.592C247.027 217.189 247.145 217.637 247.337 217.936C247.529 218.213 247.849 218.405 248.297 218.512C248.745 218.597 249.438 218.619 250.377 218.576V222.16C249.267 222.352 248.137 222.448 246.985 222.448C244.937 222.448 243.497 222.139 242.665 221.52C241.833 220.88 241.363 219.877 241.257 218.512C241.214 217.851 241.193 216.933 241.193 215.76V208.624H238.473V205.04H241.193V200.624H246.953V205.04H250.729V208.624H246.953V214.928ZM261.781 221.296C260.565 222.064 259.157 222.448 257.557 222.448C256.597 222.448 255.701 222.256 254.869 221.872C254.037 221.467 253.365 220.88 252.853 220.112C252.341 219.344 252.085 218.437 252.085 217.392C252.085 215.557 252.906 214.117 254.549 213.072C256.192 212.027 258.453 211.504 261.333 211.504H262.421V211.248C262.421 210.779 262.4 210.363 262.357 210C262.314 209.531 262.112 209.147 261.749 208.848C261.386 208.528 260.906 208.368 260.309 208.368C259.648 208.368 259.125 208.571 258.741 208.976C258.357 209.381 258.144 209.957 258.101 210.704L252.661 210.736C252.661 209.435 253.013 208.315 253.717 207.376C254.421 206.437 255.37 205.723 256.565 205.232C257.781 204.72 259.114 204.464 260.565 204.464C265.28 204.464 267.786 206.299 268.085 209.968C268.149 210.821 268.181 211.792 268.181 212.88V217.68C268.181 218.981 268.288 220.421 268.501 222H262.869L262.485 219.504L261.781 221.296ZM257.973 216.944C257.973 217.456 258.144 217.851 258.485 218.128C258.848 218.405 259.328 218.544 259.925 218.544C260.565 218.544 261.141 218.309 261.653 217.84C262.165 217.371 262.421 216.72 262.421 215.888V214.768C262.229 214.747 261.952 214.736 261.589 214.736C260.48 214.736 259.594 214.928 258.933 215.312C258.293 215.675 257.973 216.219 257.973 216.944ZM279.666 204.464C281.288 204.464 282.717 204.773 283.954 205.392C285.192 206.011 286.141 206.853 286.802 207.92C287.485 208.965 287.858 210.139 287.922 211.44H282.354C282.12 209.392 281.181 208.368 279.538 208.368C278.578 208.368 277.842 208.784 277.33 209.616C276.818 210.427 276.562 211.653 276.562 213.296C276.562 216.795 277.576 218.544 279.602 218.544C280.285 218.544 280.872 218.299 281.362 217.808C281.853 217.317 282.173 216.624 282.322 215.728H287.986C287.666 217.883 286.728 219.547 285.17 220.72C283.613 221.872 281.65 222.448 279.282 222.448C277.64 222.448 276.168 222.107 274.866 221.424C273.565 220.72 272.541 219.707 271.794 218.384C271.048 217.061 270.674 215.483 270.674 213.648C270.674 211.749 271.069 210.107 271.858 208.72C272.648 207.333 273.725 206.277 275.09 205.552C276.456 204.827 277.981 204.464 279.666 204.464ZM296.176 222H290.416V198.48H296.176V212.08L302.192 204.912H308.944L301.712 212.752L309.04 222H301.968L297.392 215.664L296.176 217.008V222ZM328.259 200.048C331.033 200.368 333.283 201.403 335.011 203.152C336.739 204.901 337.603 207.408 337.603 210.672C337.603 212.891 337.187 214.811 336.355 216.432C335.545 218.053 334.425 219.323 332.995 220.24C331.587 221.136 330.009 221.68 328.259 221.872C327.513 221.957 326.574 222 325.443 222H317.091V199.92H325.443C326.574 199.92 327.513 199.963 328.259 200.048ZM324.643 217.52C325.539 217.52 326.233 217.499 326.723 217.456C328.195 217.328 329.369 216.667 330.243 215.472C331.139 214.277 331.587 212.709 331.587 210.768C331.587 208.848 331.15 207.355 330.275 206.288C329.401 205.2 328.217 204.592 326.723 204.464C326.233 204.421 325.539 204.4 324.643 204.4H322.851V217.52H324.643ZM356.964 213.232C356.964 213.765 356.932 214.32 356.868 214.896H344.964C345.092 216.24 345.423 217.189 345.956 217.744C346.511 218.277 347.236 218.544 348.132 218.544C348.943 218.544 349.593 218.352 350.084 217.968C350.575 217.584 350.873 217.061 350.98 216.4H356.644C356.153 218.32 355.151 219.813 353.636 220.88C352.121 221.925 350.265 222.448 348.068 222.448C346.404 222.448 344.9 222.117 343.556 221.456C342.233 220.795 341.188 219.792 340.42 218.448C339.652 217.104 339.268 215.461 339.268 213.52C339.268 211.835 339.631 210.309 340.356 208.944C341.103 207.557 342.159 206.469 343.524 205.68C344.911 204.869 346.532 204.464 348.388 204.464C350.201 204.464 351.748 204.88 353.028 205.712C354.329 206.523 355.311 207.6 355.972 208.944C356.633 210.288 356.964 211.717 356.964 213.232ZM350.948 211.376C350.628 209.371 349.679 208.368 348.1 208.368C346.5 208.368 345.519 209.371 345.156 211.376H350.948ZM364.471 222L357.719 204.912H364.119L367.639 217.424L371.127 204.912H377.431L370.679 222H364.471ZM394.808 213.232C394.808 213.765 394.776 214.32 394.712 214.896H382.808C382.936 216.24 383.266 217.189 383.8 217.744C384.354 218.277 385.08 218.544 385.976 218.544C386.786 218.544 387.437 218.352 387.928 217.968C388.418 217.584 388.717 217.061 388.824 216.4H394.488C393.997 218.32 392.994 219.813 391.48 220.88C389.965 221.925 388.109 222.448 385.912 222.448C384.248 222.448 382.744 222.117 381.4 221.456C380.077 220.795 379.032 219.792 378.264 218.448C377.496 217.104 377.112 215.461 377.112 213.52C377.112 211.835 377.474 210.309 378.2 208.944C378.946 207.557 380.002 206.469 381.368 205.68C382.754 204.869 384.376 204.464 386.232 204.464C388.045 204.464 389.592 204.88 390.872 205.712C392.173 206.523 393.154 207.6 393.816 208.944C394.477 210.288 394.808 211.717 394.808 213.232ZM388.792 211.376C388.472 209.371 387.522 208.368 385.944 208.368C384.344 208.368 383.362 209.371 383 211.376H388.792ZM402.923 215.856C402.923 216.624 402.944 217.147 402.987 217.424C403.029 217.765 403.168 218 403.403 218.128C403.659 218.235 404.149 218.277 404.875 218.256V222.16C403.701 222.267 402.581 222.32 401.515 222.32C398.784 222.32 397.355 221.211 397.227 218.992C397.184 218.395 397.163 217.381 397.163 215.952V198.48H402.923V215.856ZM415.265 204.464C417.121 204.464 418.742 204.837 420.129 205.584C421.515 206.309 422.582 207.355 423.329 208.72C424.075 210.064 424.449 211.643 424.449 213.456C424.449 215.269 424.075 216.859 423.329 218.224C422.582 219.568 421.515 220.613 420.129 221.36C418.742 222.085 417.121 222.448 415.265 222.448C413.409 222.448 411.787 222.085 410.401 221.36C409.014 220.613 407.947 219.568 407.201 218.224C406.454 216.859 406.081 215.269 406.081 213.456C406.081 211.643 406.454 210.064 407.201 208.72C407.947 207.355 409.014 206.309 410.401 205.584C411.787 204.837 413.409 204.464 415.265 204.464ZM411.969 213.456C411.969 215.12 412.257 216.389 412.833 217.264C413.409 218.117 414.219 218.544 415.265 218.544C416.31 218.544 417.121 218.117 417.697 217.264C418.273 216.389 418.561 215.12 418.561 213.456C418.561 211.771 418.273 210.501 417.697 209.648C417.121 208.795 416.31 208.368 415.265 208.368C414.219 208.368 413.409 208.795 412.833 209.648C412.257 210.501 411.969 211.771 411.969 213.456ZM438.339 204.464C439.853 204.464 441.176 204.827 442.307 205.552C443.459 206.277 444.333 207.291 444.931 208.592C445.549 209.893 445.859 211.387 445.859 213.072C445.859 215.035 445.496 216.72 444.771 218.128C444.045 219.536 443.064 220.613 441.827 221.36C440.611 222.085 439.256 222.448 437.763 222.448C437.037 222.448 436.301 222.373 435.555 222.224C434.829 222.075 434.253 221.872 433.827 221.616L432.707 219.792V228.272H426.947V204.912H432.707V207.408L433.987 205.52C434.456 205.179 435.075 204.923 435.843 204.752C436.611 204.56 437.443 204.464 438.339 204.464ZM432.707 213.968C432.707 215.547 433.037 216.709 433.699 217.456C434.381 218.181 435.213 218.544 436.195 218.544C437.347 218.544 438.264 218.107 438.947 217.232C439.629 216.336 439.971 215.045 439.971 213.36C439.971 211.803 439.629 210.587 438.947 209.712C438.264 208.816 437.4 208.368 436.355 208.368C435.224 208.368 434.328 208.752 433.667 209.52C433.027 210.288 432.707 211.525 432.707 213.232V213.968ZM465.089 213.232C465.089 213.765 465.057 214.32 464.993 214.896H453.089C453.217 216.24 453.548 217.189 454.081 217.744C454.636 218.277 455.361 218.544 456.257 218.544C457.068 218.544 457.718 218.352 458.209 217.968C458.7 217.584 458.998 217.061 459.105 216.4H464.769C464.278 218.32 463.276 219.813 461.761 220.88C460.246 221.925 458.39 222.448 456.193 222.448C454.529 222.448 453.025 222.117 451.681 221.456C450.358 220.795 449.313 219.792 448.545 218.448C447.777 217.104 447.393 215.461 447.393 213.52C447.393 211.835 447.756 210.309 448.481 208.944C449.228 207.557 450.284 206.469 451.649 205.68C453.036 204.869 454.657 204.464 456.513 204.464C458.326 204.464 459.873 204.88 461.153 205.712C462.454 206.523 463.436 207.6 464.097 208.944C464.758 210.288 465.089 211.717 465.089 213.232ZM459.073 211.376C458.753 209.371 457.804 208.368 456.225 208.368C454.625 208.368 453.644 209.371 453.281 211.376H459.073ZM477.908 204.464C478.377 204.464 478.814 204.496 479.22 204.56V209.264C479.006 209.243 478.697 209.232 478.292 209.232C477.076 209.232 476.105 209.445 475.38 209.872C474.654 210.299 474.132 210.981 473.812 211.92C473.492 212.859 473.332 214.128 473.332 215.728V222H467.572V204.912H473.332V208.368L474.548 205.968C474.996 205.477 475.518 205.104 476.116 204.848C476.734 204.592 477.332 204.464 477.908 204.464Z" fill="url(#paint3_linear_35_2)" fill-opacity="0.8"/>
<path d="M537.76 212.304C537.76 213.499 537.728 214.533 537.664 215.408C537.515 217.456 536.651 219.141 535.072 220.464C533.515 221.787 531.147 222.448 527.968 222.448C524.789 222.448 522.411 221.787 520.832 220.464C519.275 219.141 518.421 217.456 518.272 215.408C518.208 214.533 518.176 213.499 518.176 212.304V199.92H523.936V213.36C523.936 213.979 523.947 214.416 523.968 214.672C524.139 217.04 525.472 218.224 527.968 218.224C530.464 218.224 531.797 217.04 531.968 214.672C531.989 214.416 532 213.979 532 213.36V199.92H537.76V212.304ZM541.529 199.92H547.289V222H541.529V199.92ZM556.903 198.96H560.263L552.231 222.96H548.871L556.903 198.96ZM581.854 212.304C581.854 213.499 581.822 214.533 581.758 215.408C581.608 217.456 580.744 219.141 579.166 220.464C577.608 221.787 575.24 222.448 572.062 222.448C568.883 222.448 566.504 221.787 564.926 220.464C563.368 219.141 562.515 217.456 562.366 215.408C562.302 214.533 562.27 213.499 562.27 212.304V199.92H568.03V213.36C568.03 213.979 568.04 214.416 568.062 214.672C568.232 217.04 569.566 218.224 572.062 218.224C574.558 218.224 575.891 217.04 576.062 214.672C576.083 214.416 576.094 213.979 576.094 213.36V199.92H581.854V212.304ZM590.455 222H583.511L591.415 210.864L584.055 199.92H590.775L594.935 207.28L599.415 199.92H606.039L598.327 210.768L606.103 222H599.383L594.743 214.544L590.455 222ZM636.603 200.048C639.376 200.368 641.627 201.403 643.355 203.152C645.083 204.901 645.947 207.408 645.947 210.672C645.947 212.891 645.531 214.811 644.699 216.432C643.888 218.053 642.768 219.323 641.339 220.24C639.931 221.136 638.352 221.68 636.603 221.872C635.856 221.957 634.918 222 633.787 222H625.435V199.92H633.787C634.918 199.92 635.856 199.963 636.603 200.048ZM632.987 217.52C633.883 217.52 634.576 217.499 635.067 217.456C636.539 217.328 637.712 216.667 638.587 215.472C639.483 214.277 639.931 212.709 639.931 210.768C639.931 208.848 639.494 207.355 638.619 206.288C637.744 205.2 636.56 204.592 635.067 204.464C634.576 204.421 633.883 204.4 632.987 204.4H631.195V217.52H632.987ZM665.308 213.232C665.308 213.765 665.276 214.32 665.212 214.896H653.308C653.436 216.24 653.766 217.189 654.3 217.744C654.854 218.277 655.58 218.544 656.476 218.544C657.286 218.544 657.937 218.352 658.428 217.968C658.918 217.584 659.217 217.061 659.324 216.4H664.988C664.497 218.32 663.494 219.813 661.98 220.88C660.465 221.925 658.609 222.448 656.412 222.448C654.748 222.448 653.244 222.117 651.9 221.456C650.577 220.795 649.532 219.792 648.764 218.448C647.996 217.104 647.612 215.461 647.612 213.52C647.612 211.835 647.974 210.309 648.7 208.944C649.446 207.557 650.502 206.469 651.868 205.68C653.254 204.869 654.876 204.464 656.732 204.464C658.545 204.464 660.092 204.88 661.372 205.712C662.673 206.523 663.654 207.6 664.316 208.944C664.977 210.288 665.308 211.717 665.308 213.232ZM659.292 211.376C658.972 209.371 658.022 208.368 656.444 208.368C654.844 208.368 653.862 209.371 653.5 211.376H659.292ZM674.831 204.464C676.879 204.464 678.521 204.965 679.759 205.968C681.017 206.971 681.764 208.283 681.999 209.904H676.335C676.057 208.667 675.439 208.048 674.479 208.048C674.073 208.048 673.743 208.165 673.487 208.4C673.231 208.635 673.103 208.933 673.103 209.296C673.103 209.808 673.38 210.245 673.935 210.608C674.511 210.949 675.577 211.312 677.135 211.696C678.841 212.123 680.153 212.752 681.071 213.584C681.988 214.395 682.447 215.568 682.447 217.104C682.447 218.853 681.732 220.187 680.303 221.104C678.895 222 677.092 222.448 674.895 222.448C672.527 222.448 670.607 221.957 669.135 220.976C667.684 219.995 666.852 218.565 666.639 216.688H672.303C672.452 217.349 672.761 217.883 673.231 218.288C673.7 218.672 674.244 218.864 674.863 218.864C675.396 218.864 675.833 218.757 676.175 218.544C676.516 218.309 676.687 217.979 676.687 217.552C676.687 217.019 676.377 216.581 675.759 216.24C675.161 215.877 674.095 215.515 672.559 215.152C670.852 214.747 669.551 214.139 668.655 213.328C667.78 212.496 667.343 211.376 667.343 209.968C667.343 208.283 668.015 206.949 669.359 205.968C670.724 204.965 672.548 204.464 674.831 204.464ZM684.697 204.912H690.457V222H684.697V204.912ZM684.665 198.064H690.521V203.696H684.665V198.064ZM711.868 217.648C711.868 219.227 711.857 220.325 711.836 220.944C711.75 223.653 710.844 225.68 709.116 227.024C707.388 228.368 705.02 229.04 702.012 229.04C699.43 229.04 697.393 228.528 695.9 227.504C694.428 226.48 693.585 224.997 693.372 223.056L693.34 222.736H698.908L698.94 223.056C699.004 223.611 699.324 224.037 699.9 224.336C700.497 224.656 701.254 224.816 702.172 224.816C703.302 224.816 704.209 224.549 704.892 224.016C705.574 223.504 705.958 222.693 706.044 221.584C706.086 220.901 706.108 220.155 706.108 219.344V218.864L704.828 220.752C703.868 221.456 702.524 221.808 700.796 221.808C699.26 221.808 697.894 221.477 696.7 220.816C695.526 220.133 694.609 219.173 693.948 217.936C693.286 216.699 692.956 215.248 692.956 213.584C692.956 211.621 693.318 209.957 694.044 208.592C694.769 207.227 695.74 206.203 696.956 205.52C698.193 204.816 699.558 204.464 701.052 204.464C701.777 204.464 702.502 204.539 703.228 204.688C703.974 204.837 704.561 205.04 704.988 205.296L706.108 207.12V204.912H711.868V217.648ZM698.844 213.168C698.844 214.704 699.174 215.877 699.836 216.688C700.518 217.499 701.393 217.904 702.46 217.904C703.59 217.904 704.476 217.52 705.116 216.752C705.777 215.984 706.108 214.747 706.108 213.04V212.944C706.108 211.365 705.766 210.213 705.084 209.488C704.422 208.741 703.601 208.368 702.62 208.368C700.102 208.368 698.844 209.968 698.844 213.168ZM732.506 209.104C732.612 209.829 732.666 210.907 732.666 212.336V222H726.906V213.296C726.906 212.315 726.884 211.536 726.842 210.96C726.778 210.128 726.511 209.488 726.042 209.04C725.594 208.592 724.943 208.368 724.09 208.368C723.172 208.368 722.436 208.837 721.882 209.776C721.348 210.693 721.082 212.08 721.082 213.936V222H715.322V204.912H721.082V207.568L722.618 205.456C723.706 204.795 724.986 204.464 726.458 204.464C728.207 204.464 729.594 204.869 730.618 205.68C731.642 206.469 732.271 207.611 732.506 209.104ZM752.652 213.232C752.652 213.765 752.62 214.32 752.556 214.896H740.652C740.78 216.24 741.11 217.189 741.644 217.744C742.198 218.277 742.924 218.544 743.82 218.544C744.63 218.544 745.281 218.352 745.772 217.968C746.262 217.584 746.561 217.061 746.668 216.4H752.332C751.841 218.32 750.838 219.813 749.324 220.88C747.809 221.925 745.953 222.448 743.756 222.448C742.092 222.448 740.588 222.117 739.244 221.456C737.921 220.795 736.876 219.792 736.108 218.448C735.34 217.104 734.956 215.461 734.956 213.52C734.956 211.835 735.318 210.309 736.044 208.944C736.79 207.557 737.846 206.469 739.212 205.68C740.598 204.869 742.22 204.464 744.076 204.464C745.889 204.464 747.436 204.88 748.716 205.712C750.017 206.523 750.998 207.6 751.66 208.944C752.321 210.288 752.652 211.717 752.652 213.232ZM746.636 211.376C746.316 209.371 745.366 208.368 743.788 208.368C742.188 208.368 741.206 209.371 740.844 211.376H746.636ZM765.47 204.464C765.94 204.464 766.377 204.496 766.782 204.56V209.264C766.569 209.243 766.26 209.232 765.854 209.232C764.638 209.232 763.668 209.445 762.942 209.872C762.217 210.299 761.694 210.981 761.374 211.92C761.054 212.859 760.894 214.128 760.894 215.728V222H755.134V204.912H760.894V208.368L762.11 205.968C762.558 205.477 763.081 205.104 763.678 204.848C764.297 204.592 764.894 204.464 765.47 204.464Z" fill="url(#paint4_linear_35_2)" fill-opacity="0.8"/>
<defs>
<radialGradient id="paint0_radial_35_2" cx="0" cy="0" r="1" gradientUnits="userSpaceOnUse" gradientTransform="translate(573 -43) rotate(147.036) scale(678.175 678.175)">
<stop offset="0.48" stop-opacity="0"/>
<stop offset="0.56" stop-color="#88C5D6" stop-opacity="0.06"/>
<stop offset="0.64" stop-color="#94BBC9" stop-opacity="0.11"/>
<stop offset="0.76" stop-color="#73D6EC" stop-opacity="0.18"/>
<stop offset="0.88" stop-color="#B4E8FF" stop-opacity="0.26"/>
<stop offset="1" stop-color="#E0F4FD" stop-opacity="0.46"/>
</radialGradient>
<linearGradient id="paint1_linear_35_2" x1="916" y1="3.99998" x2="3.99998" y2="326" gradientUnits="userSpaceOnUse">
<stop stop-color="#557786"/>
<stop offset="0.061637" stop-color="#072735"/>
<stop offset="0.940258" stop-color="#16323D"/>
<stop offset="1" stop-color="#E0F4FD"/>
</linearGradient>
<linearGradient id="paint2_linear_35_2" x1="87" y1="188" x2="818.086" y2="54.0568" gradientUnits="userSpaceOnUse">
<stop stop-color="#DDDDDD"/>
<stop offset="1" stop-color="#80AAB7"/>
</linearGradient>
<linearGradient id="paint3_linear_35_2" x1="316.5" y1="188" x2="316.5" y2="233" gradientUnits="userSpaceOnUse">
<stop stop-color="#B8D9FB" stop-opacity="0.8"/>
<stop offset="1" stop-color="#C6C6C6" stop-opacity="0.8"/>
</linearGradient>
<linearGradient id="paint4_linear_35_2" x1="641.5" y1="188" x2="641.5" y2="233" gradientUnits="userSpaceOnUse">
<stop stop-color="#B8D9FB" stop-opacity="0.8"/>
<stop offset="1" stop-color="#C6C6C6" stop-opacity="0.8"/>
</linearGradient>
</defs>
</svg>
